<?xml version="1.0" standalone="no"?><!DOCTYPE svg PUBLIC "-//W3C//DTD SVG 1.1//EN" "http://www.w3.org/Graphics/SVG/1.1/DTD/svg11.dtd"><svg height="1000" node-id="1" sillyvg="true" template-height="1000" template-width="1000" version="1.1" viewBox="0 0 1000 1000" width="1000" xmlns="http://www.w3.org/2000/svg" xmlns:xlink="http://www.w3.org/1999/xlink"><defs node-id="140"><clipPath id="XMLID_2_" node-id="7"><path d="M 211.74 242.01 C 211.74 242.01 -1.98 331.09 203.78 581.37 C 203.78 581.37 266.86 665.75 528.63 720.28 C 528.63 720.28 846.10 716.71 868.84 420.06 C 891.57 123.40 664.21 159.40 608.14 198.43 C 559.55 232.26 429.32 278.73 319.96 228.35 C 319.96 228.35 286.72 206.77 211.74 242.01 Z" fill="#000000" fill-rule="nonzero" node-id="143" stroke="none" target-height="596.88" target-width="893.55" target-x="-1.98" target-y="123.4"></path></clipPath><clipPath id="XMLID_3_" node-id="23"><path d="M 451.38 598.22 L 149.74 598.22 C 145.89 598.22 142.77 595.10 142.77 591.25 L 142.77 547.59 C 142.77 543.74 145.89 540.62 149.74 540.62 L 451.38 540.62 C 455.23 540.62 458.35 543.74 458.35 547.59 L 458.35 591.25 C 458.35 595.10 455.23 598.22 451.38 598.22 Z" fill="#000000" fill-rule="nonzero" node-id="147" stroke="none" target-height="57.599976" target-width="315.58002" target-x="142.77" target-y="540.62"></path></clipPath><clipPath id="SVGID_1_" node-id="41"><path d="M 303.05 743.38 L 303.05 734.90 L 300.52 734.59 L 297.84 734.06 L 293.79 732.93 L 289.45 731.34 L 284.17 728.84 L 280.68 726.84 L 276.95 724.32 L 272.96 721.21 L 269.23 717.84 L 265.40 713.78 L 261.47 708.97 L 344.64 708.97 L 341.60 743.16 L 303.05 743.38 Z" fill="#000000" fill-rule="nonzero" node-id="151" stroke="none" target-height="34.410034" target-width="83.17001" target-x="261.47" target-y="708.97"></path></clipPath><clipPath id="SVGID_2_" node-id="59"><path d="M 287.26 459.09 L 270.14 674.09 L 312.05 674.24 L 333.60 475.78 L 348.55 674.09 L 400.29 674.09 L 376.68 459.09 Z" fill="#000000" fill-rule="nonzero" node-id="155" stroke="none" target-height="215.15" target-width="130.15" target-x="270.14" target-y="459.09"></path></clipPath><clipPath id="SVGID_3_" node-id="68"><path d="M 387.36 743.37 L 386.22 734.90 L 383.68 734.59 L 381.00 734.06 L 376.95 732.94 L 372.62 731.34 L 367.33 728.84 L 363.84 726.84 L 360.11 724.32 L 356.12 721.21 L 352.39 717.84 L 348.56 713.79 L 344.64 708.97 L 427.80 708.97 L 427.80 743.14 L 387.36 743.37 Z" fill="#000000" fill-rule="nonzero" node-id="159" stroke="none" target-height="34.400024" target-width="83.15997" target-x="344.64" target-y="708.97"></path></clipPath><clipPath id="XMLID_4_" node-id="83"><path d="M 738.86 472.99 C 738.86 472.99 748.08 436.54 779.40 417.12 C 779.40 417.12 802.90 420.52 796.08 472.99 C 796.08 472.99 803.47 426.18 842.12 435.08 C 842.12 435.08 827.72 450.62 826.77 474.50 C 826.77 474.50 863.15 484.54 853.68 518.64 C 853.68 518.64 872.25 502.35 887.78 499.69 C 887.78 499.69 871.87 530.77 877.93 547.06 C 877.93 547.06 895.55 534.18 917.72 542.14 C 917.72 542.14 892.33 567.53 897.64 585.72 C 897.64 585.72 924.54 574.35 941.59 583.06 C 941.59 583.06 922.65 595.95 911.28 628.16 C 911.28 628.16 924.16 631.19 937.05 658.10 C 937.05 658.10 928.03 664.20 909.00 663.78 C 909.00 663.78 942.87 677.49 937.11 713.46 L 722.18 713.46 L 738.86 472.99 Z" fill="#000000" fill-rule="nonzero" node-id="163" stroke="none" target-height="296.34003" target-width="220.69" target-x="722.18" target-y="417.12"></path></clipPath><clipPath id="SVGID_4_" node-id="91"><path d="M 496.33 461.30 C 490.68 461.30 486.10 465.88 486.10 471.53 L 486.10 681.14 C 486.10 681.14 486.02 715.19 500.00 713.46 L 804.42 713.46 L 804.42 471.53 C 804.42 465.88 799.84 461.29 794.18 461.29 L 496.33 461.29 Z" fill="#000000" fill-rule="nonzero" node-id="167" stroke="none" target-height="253.9" target-width="318.4" target-x="486.02" target-y="461.29"></path></clipPath><clipPath id="XMLID_5_" node-id="115"><path d="M 884.34 361.83 L 658.27 361.83 L 711.94 325.38 L 711.94 231.06 C 711.94 226.44 715.69 222.69 720.31 222.69 L 884.34 222.69 C 888.96 222.69 892.71 226.44 892.71 231.06 L 892.71 353.46 C 892.71 358.08 888.96 361.83 884.34 361.83 Z" fill="#000000" fill-rule="nonzero" node-id="171" stroke="none" target-height="139.13998" target-width="234.44" target-x="658.27" target-y="222.69"></path></clipPath></defs><g node-id="458"><g node-id="464"><path d="M 211.74 242.01 C 211.74 242.01 -1.98 331.09 203.78 581.37 C 203.78 581.37 266.86 665.75 528.63 720.28 C 528.63 720.28 846.10 716.71 868.84 420.06 C 891.57 123.40 664.21 159.40 608.14 198.43 C 559.55 232.26 429.32 278.73 319.96 228.35 C 319.96 228.35 286.72 206.77 211.74 242.01 Z" fill="#ffebe5" fill-rule="nonzero" group-id="1,7" node-id="181" stroke="none" target-height="596.88" target-width="893.55" target-x="-1.98" target-y="123.4"></path></g><g node-id="465"><g clip-path="url(#XMLID_2_)" group-id="1,8" node-id="184"><path d="M 73.11 545.51 C 73.09 545.51 73.07 545.51 73.06 545.50 L 73.11 544.51 L 72.11 544.38 L 72.13 544.23 C 73.16 533.88 83.97 441.76 146.61 393.69 C 179.42 368.51 220.85 359.82 269.76 367.85 C 368.62 384.09 436.42 326.39 468.03 290.55 C 517.76 234.17 538.73 167.28 531.88 144.15 L 533.80 143.58 C 537.60 156.42 533.46 179.95 522.72 206.52 C 510.67 236.33 491.78 266.65 469.53 291.88 C 444.38 320.39 415.97 341.79 385.07 355.48 C 348.65 371.62 309.75 376.45 269.43 369.82 C 221.10 361.89 180.18 370.45 147.82 395.28 C 85.85 442.83 75.14 534.17 74.12 544.43 C 74.02 545.40 73.37 545.51 73.11 545.51 Z" fill="#ffffff" fill-rule="nonzero" group-id="1,8" node-id="186" stroke="none" target-height="401.93" target-width="466.62" target-x="72.11" target-y="143.58"></path></g></g><g node-id="466"><g clip-path="url(#XMLID_2_)" group-id="1,9" node-id="189"><path d="M 184.45 670.46 L 182.47 670.18 C 182.56 669.54 191.71 605.14 232.44 541.48 C 256.38 504.08 286.37 474.23 321.59 452.77 C 365.60 425.96 417.93 412.26 477.13 412.05 C 547.87 411.81 596.04 391.90 620.32 352.89 C 645.01 313.19 640.17 260.50 631.75 223.28 C 622.61 182.85 607.39 151.44 607.24 151.12 L 609.04 150.25 C 609.19 150.56 624.50 182.15 633.69 222.79 C 642.20 260.39 647.08 313.66 622.02 353.94 C 597.36 393.58 548.61 413.81 477.13 414.05 C 343.98 414.51 271.51 484.16 234.16 542.50 C 193.65 605.79 184.54 669.82 184.45 670.46 Z" fill="#ffffff" fill-rule="nonzero" group-id="1,9" node-id="191" stroke="none" target-height="520.21" target-width="464.61002" target-x="182.47" target-y="150.25"></path></g></g><g node-id="467"><g clip-path="url(#XMLID_2_)" group-id="1,10" node-id="194"><path d="M 906.28 454.11 C 843.89 422.79 794.57 387.80 759.68 350.11 C 730.67 318.77 711.34 285.26 702.21 250.53 C 691.31 209.06 697.09 173.16 703.85 150.36 C 711.19 125.63 721.25 110.49 721.35 110.34 L 723.01 111.45 C 722.91 111.60 712.99 126.55 705.74 151.01 C 699.07 173.57 693.37 209.06 704.15 250.06 C 724.34 326.78 792.64 394.83 907.18 452.33 L 906.28 454.11 Z" fill="#ffffff" fill-rule="nonzero" group-id="1,10" node-id="196" stroke="none" target-height="343.77" target-width="215.87" target-x="691.31" target-y="110.34"></path></g></g><g node-id="468"><g clip-path="url(#XMLID_2_)" group-id="1,11" node-id="199"><path d="M 302.73 798.60 C 290.69 798.60 283.52 797.43 283.33 797.40 L 283.67 795.42 C 284.17 795.51 333.88 803.58 393.10 776.27 C 447.77 751.05 521.97 689.66 564.97 540.35 C 586.00 467.34 621.15 424.13 669.45 411.92 C 695.00 405.46 724.37 407.69 756.75 418.57 C 782.58 427.25 810.38 441.42 839.37 460.69 C 888.70 493.47 924.90 530.17 925.26 530.54 L 923.83 531.94 C 923.47 531.57 887.40 495.00 838.23 462.33 C 792.96 432.25 727.02 399.43 669.93 413.86 C 622.38 425.88 587.71 468.62 566.89 540.90 C 547.81 607.15 521.05 661.86 487.36 703.52 C 460.37 736.88 428.90 761.98 393.83 778.13 C 356.46 795.34 322.82 798.60 302.73 798.60 Z" fill="#ffffff" fill-rule="nonzero" group-id="1,11" node-id="201" stroke="none" target-height="404.15002" target-width="641.93005" target-x="283.33" target-y="399.43"></path></g></g><g clip-path="url(#XMLID_2_)" group-id="1,12" node-id="204"><path d="M 392.18 773.10 L 390.54 771.97 C 390.85 771.51 422.09 725.82 441.02 672.00 C 458.42 622.55 468.69 555.92 418.81 519.30 C 400.78 506.06 381.73 502.15 362.18 507.70 C 324.98 518.24 291.89 561.39 270.68 595.72 C 247.64 633.01 233.28 668.24 233.13 668.59 L 231.28 667.84 C 231.42 667.49 245.85 632.11 268.98 594.67 C 290.37 560.03 323.82 516.49 361.64 505.77 C 381.80 500.05 401.44 504.06 420.00 517.69 C 442.49 534.20 454.99 557.97 457.16 588.32 C 458.89 612.50 454.09 640.89 442.89 672.70 C 423.87 726.76 392.50 772.65 392.18 773.10 Z" fill="#ffffff" fill-rule="nonzero" group-id="1,12" node-id="206" stroke="none" target-height="273.05" target-width="237.41" target-x="231.28" target-y="500.05"></path></g></g><path d="M 937.12 727.10 L 62.88 727.10 C 59.13 727.10 56.06 724.03 56.06 720.28 L 56.06 720.28 C 56.06 716.52 59.13 713.46 62.88 713.46 L 937.12 713.46 C 940.87 713.46 943.94 716.53 943.94 720.28 L 943.94 720.28 C 943.94 724.03 940.87 727.10 937.12 727.10 Z" fill="#26205c" fill-rule="nonzero" node-id="210" stroke="none" target-height="13.639954" target-width="887.88" target-x="56.06" target-y="713.46"></path><path d="M 675.77 401.10 L 480.80 401.10 L 437.05 456.86 L 437.05 254.63 C 437.05 248.88 441.71 244.22 447.46 244.22 L 675.77 244.22 C 681.52 244.22 686.18 248.88 686.18 254.63 L 686.18 390.69 C 686.18 396.44 681.52 401.10 675.77 401.10 Z" fill="#ffffff" fill-rule="nonzero" node-id="212" stroke="none" target-height="212.63998" target-width="249.13" target-x="437.05" target-y="244.22"></path><path d="M 419.41 301.76 C 419.41 321.47 403.42 337.46 383.70 337.46 C 363.98 337.46 348.00 321.47 348.00 301.76 C 348.00 282.04 363.98 266.05 383.70 266.05 C 403.42 266.05 419.41 282.04 419.41 301.76 Z" fill="#ff6666" fill-rule="nonzero" node-id="214" stroke="none" target-height="71.41" target-width="71.41" target-x="348" target-y="266.05"></path><path d="M 161.47 287.87 L 279.04 287.87 L 279.04 316.79 L 161.47 316.79 Z" fill="#5a78ec" fill-rule="nonzero" node-id="216" stroke="none" target-height="28.920013" target-width="117.57001" target-x="161.47" target-y="287.87"></path><path d="M 214.42 336.08 L 300.25 336.08 L 300.25 365.00 L 214.42 365.00 Z" fill="#eaeaff" fill-rule="nonzero" node-id="218" stroke="none" target-height="28.920013" target-width="85.83" target-x="214.42" target-y="336.08"></path><path d="M 451.38 598.22 L 149.74 598.22 C 145.89 598.22 142.77 595.10 142.77 591.25 L 142.77 547.59 C 142.77 543.74 145.89 540.62 149.74 540.62 L 451.38 540.62 C 455.23 540.62 458.35 543.74 458.35 547.59 L 458.35 591.25 C 458.35 595.10 455.23 598.22 451.38 598.22 Z" fill="#ffffff" fill-rule="nonzero" group-id="2,13" node-id="224" stroke="none" target-height="57.599976" target-width="315.58002" target-x="142.77" target-y="540.62"></path><g clip-path="url(#XMLID_3_)" group-id="2,14" node-id="227"><path d="M 396.29 518.14 L 480.80 518.14 L 480.80 619.44 L 396.29 619.44 Z" fill="#ff6666" fill-rule="nonzero" group-id="2,14" node-id="229" stroke="none" target-height="101.29999" target-width="84.50998" target-x="396.29" target-y="518.14"></path></g><path d="M 458.97 588.84 L 157.33 588.84 C 153.48 588.84 150.37 585.72 150.37 581.87 L 150.37 538.21 C 150.37 534.36 153.48 531.24 157.33 531.24 L 458.97 531.24 C 462.82 531.24 465.94 534.36 465.94 538.21 L 465.94 581.87 C 465.94 585.72 462.82 588.84 458.97 588.84 Z" fill="none" node-id="233" stroke="#232323" stroke-linecap="round" stroke-width="2" target-height="57.600037" target-width="315.57" target-x="150.37" target-y="531.24"></path><path d="M 423.47 580.22 C 414.77 580.22 407.69 573.14 407.69 564.43 C 407.69 555.73 414.77 548.65 423.47 548.65 C 432.18 548.65 439.25 555.73 439.25 564.43 C 439.25 573.14 432.18 580.22 423.47 580.22 Z M 423.47 550.65 C 415.87 550.65 409.69 556.84 409.69 564.43 C 409.69 572.03 415.87 578.22 423.47 578.22 C 431.07 578.22 437.25 572.03 437.25 564.43 C 437.25 556.84 431.07 550.65 423.47 550.65 Z" fill="#ffffff" fill-rule="nonzero" node-id="235" stroke="none" target-height="31.569946" target-width="31.559998" target-x="407.69" target-y="548.65"></path><path d="M 449.57 588.87 C 449.34 588.87 449.12 588.79 448.93 588.63 L 433.41 575.51 C 432.99 575.16 432.94 574.53 433.29 574.10 C 433.65 573.68 434.28 573.63 434.70 573.99 L 450.22 587.11 C 450.64 587.46 450.69 588.09 450.34 588.51 C 450.14 588.75 449.86 588.87 449.57 588.87 Z" fill="#ffffff" fill-rule="nonzero" node-id="237" stroke="none" target-height="15.23999" target-width="17.75" target-x="432.94" target-y="573.63"></path><path d="M 460.56 259.83 L 658.27 259.83 L 658.27 278.77 L 460.56 278.77 Z" fill="#f1f1f1" fill-rule="nonzero" node-id="239" stroke="none" target-height="18.940002" target-width="197.71002" target-x="460.56" target-y="259.83"></path><path d="M 460.56 286.21 L 658.27 286.21 L 658.27 305.15 L 460.56 305.15 Z" fill="#f1f1f1" fill-rule="nonzero" node-id="241" stroke="none" target-height="18.940002" target-width="197.71002" target-x="460.56" target-y="286.21"></path><path d="M 460.56 311.84 L 576.42 311.84 L 576.42 330.79 L 460.56 330.79 Z" fill="#f1f1f1" fill-rule="nonzero" node-id="243" stroke="none" target-height="18.950012" target-width="115.859985" target-x="460.56" target-y="311.84"></path><path d="M 458.35 346.57 L 493.08 346.57 L 493.08 381.30 L 458.35 381.30 Z" fill="#ffd840" fill-rule="nonzero" node-id="245" stroke="none" target-height="34.72998" target-width="34.72998" target-x="458.35" target-y="346.57"></path><path d="M 515.47 346.57 L 550.20 346.57 L 550.20 381.30 L 515.47 381.30 Z" fill="#ff6666" fill-rule="nonzero" node-id="247" stroke="none" target-height="34.72998" target-width="34.73004" target-x="515.47" target-y="346.57"></path><path d="M 447.84 439.69 C 437.20 439.69 429.28 436.77 424.60 430.93 C 416.77 421.17 418.78 404.51 430.41 382.77 C 430.68 382.28 431.28 382.10 431.77 382.36 C 432.25 382.62 432.44 383.22 432.18 383.71 C 421.11 404.40 418.98 420.72 426.16 429.68 C 444.39 452.41 515.65 425.64 585.01 370.01 C 618.74 342.96 646.94 313.19 664.43 286.17 C 681.72 259.45 686.44 238.76 677.73 227.90 C 666.92 214.42 636.36 218.09 595.98 237.72 C 595.49 237.97 594.88 237.76 594.64 237.26 C 594.40 236.76 594.61 236.17 595.11 235.93 C 636.38 215.86 667.86 212.39 679.29 226.65 C 688.58 238.23 683.90 259.75 666.11 287.25 C 648.51 314.45 620.15 344.39 586.26 371.57 C 552.37 398.75 516.99 419.93 486.62 431.21 C 471.40 436.87 458.30 439.69 447.84 439.69 Z" fill="#ffd840" fill-rule="nonzero" node-id="249" stroke="none" target-height="240.02" target-width="271.81003" target-x="416.77" target-y="212.39"></path><path d="M 630.85 337.90 C 630.85 341.94 627.57 345.21 623.53 345.21 C 619.49 345.21 616.21 341.94 616.21 337.90 C 616.21 333.85 619.49 330.58 623.53 330.58 C 627.57 330.58 630.85 333.85 630.85 337.90 Z" fill="#5a78ec" fill-rule="nonzero" node-id="251" stroke="none" target-height="14.630005" target-width="14.639954" target-x="616.21" target-y="330.58"></path><path d="M 309.34 680.77 L 309.34 689.25 C 309.34 689.25 332.27 690.32 350.92 715.19 L 267.76 715.19 L 270.80 681.00 L 309.34 680.77 Z" fill="#26205c" fill-rule="nonzero" group-id="3,15,24" node-id="259" stroke="none" target-height="34.419983" target-width="83.16" target-x="267.76" target-y="680.77"></path><g clip-path="url(#SVGID_1_)" group-id="3,15,25" node-id="262"><path d="M 378.89 713.11 L 233.50 713.11 L 233.50 711.04 L 378.89 711.04 Z" fill="#ffffff" fill-rule="nonzero" group-id="3,15,25" node-id="264" stroke="none" target-height="2.0700073" target-width="145.39001" target-x="233.5" target-y="711.04"></path></g><path d="M 339.37 324.98 L 336.41 322.66 C 336.60 321.60 336.72 320.50 336.72 319.38 C 336.72 309.31 328.56 301.14 318.49 301.14 C 308.41 301.14 300.25 309.31 300.25 319.38 C 300.25 329.45 308.41 337.62 318.49 337.62 C 325.89 337.62 332.24 333.20 335.10 326.87 C 341.40 327.58 339.37 324.98 339.37 324.98 Z" fill="#ffb7b7" fill-rule="nonzero" group-id="3,16" node-id="270" stroke="none" target-height="36.47998" target-width="41.149994" target-x="300.25" target-y="301.14"></path><path d="M 300.17 321.69 L 307.10 319.24 C 307.10 319.24 302.75 302.48 319.24 311.92 C 319.24 311.92 319.17 305.74 324.89 307.60 C 330.61 309.46 331.95 313.06 335.36 311.21 C 335.36 311.21 345.74 299.75 334.48 294.33 C 323.23 288.91 316.80 284.51 307.65 291.41 C 298.51 298.31 292.41 306.78 300.17 321.69 Z" fill="#26205c" fill-rule="nonzero" group-id="3,16" node-id="272" stroke="none" target-height="37.179993" target-width="53.329987" target-x="292.41" target-y="284.51"></path><path d="M 283.86 354.25 L 349.77 346.67 C 357.39 345.80 364.52 350.56 366.64 357.93 L 376.68 459.09 L 287.26 459.09 L 270.64 373.52 C 268.28 364.42 274.52 355.32 283.86 354.25 Z" fill="#5a78ec" fill-rule="nonzero" group-id="3" node-id="275" stroke="none" target-height="113.29001" target-width="108.399994" target-x="268.28" target-y="345.8"></path><path d="M 272.03 445.32 L 272.03 445.32 C 264.19 444.08 258.84 436.71 260.08 428.87 L 269.59 368.84 C 270.83 361.00 278.20 355.65 286.04 356.89 L 286.04 356.89 C 293.88 358.13 299.23 365.49 297.99 373.33 L 288.48 433.37 C 287.24 441.21 279.87 446.56 272.03 445.32 Z" fill="#5a78ec" fill-rule="nonzero" group-id="3" node-id="277" stroke="none" target-height="90.91" target-width="40.390015" target-x="258.84" target-y="355.65"></path><path d="M 392.87 421.09 L 392.87 421.09 C 386.28 425.51 377.35 423.76 372.93 417.17 L 340.56 368.95 C 336.14 362.36 337.89 353.44 344.48 349.01 L 344.48 349.01 C 351.07 344.59 360.00 346.34 364.43 352.93 L 396.79 401.15 C 401.22 407.74 399.46 416.67 392.87 421.09 Z" fill="#5a78ec" fill-rule="nonzero" group-id="3" node-id="279" stroke="none" target-height="80.92001" target-width="65.07999" target-x="336.14" target-y="344.59"></path><path d="M 477.06 399.61 L 477.06 399.61 C 476.44 394.66 471.89 391.11 466.93 391.72 L 458.35 392.79 L 452.81 398.33 C 451.80 399.34 450.14 399.34 449.12 398.33 C 448.11 397.31 448.11 395.65 449.12 394.64 L 449.93 393.83 L 440.81 394.97 C 435.85 395.58 432.30 400.14 432.92 405.09 C 433.53 410.05 438.09 413.60 443.04 412.98 L 469.17 409.74 C 474.12 409.12 477.68 404.57 477.06 399.61 Z" fill="#ffb7b7" fill-rule="nonzero" group-id="3,17" node-id="283" stroke="none" target-height="22.49002" target-width="45.380005" target-x="432.3" target-y="391.11"></path><path d="M 459.80 391.34 C 460.82 390.32 460.82 388.66 459.80 387.65 C 458.79 386.63 457.13 386.63 456.11 387.65 L 449.93 393.83 L 458.35 392.79 L 459.80 391.34 Z" fill="#ffb7b7" fill-rule="nonzero" group-id="3,17" node-id="285" stroke="none" target-height="7.1999817" target-width="10.890015" target-x="449.93" target-y="386.63"></path><path d="M 449.12 398.33 C 450.14 399.34 451.80 399.34 452.81 398.33 L 458.35 392.79 L 449.93 393.83 L 449.12 394.64 C 448.11 395.65 448.11 397.31 449.12 398.33 Z" fill="#ffb7b7" fill-rule="nonzero" group-id="3,17" node-id="287" stroke="none" target-height="6.549988" target-width="10.240021" target-x="448.11" target-y="392.79"></path><path d="M 447.99 390.93 L 450.29 415.07 C 450.41 416.31 449.51 417.40 448.27 417.52 L 386.58 423.49 C 378.68 424.24 371.66 418.45 370.91 410.55 L 370.91 410.55 C 370.16 402.64 375.95 395.63 383.86 394.87 L 445.54 388.90 C 446.78 388.79 447.88 389.69 447.99 390.93 Z" fill="#5a78ec" fill-rule="nonzero" group-id="3" node-id="290" stroke="none" target-height="35.44998" target-width="80.25" target-x="370.16" target-y="388.79"></path><path d="M 287.26 459.09 L 270.14 674.09 L 312.05 674.24 L 333.60 475.78 L 348.55 674.09 L 400.29 674.09 L 376.68 459.09 Z" fill="#26205c" fill-rule="nonzero" group-id="3,18,26" node-id="296" stroke="none" target-height="215.15" target-width="130.15" target-x="270.14" target-y="459.09"></path><g clip-path="url(#SVGID_2_)" group-id="3,18,27" node-id="299"><path d="M 282.28 482.69 L 286.72 490.63 L 316.10 473.16 L 308.15 461.59 L 387.81 462.72 L 385.54 459.09 L 279.04 459.09 Z" fill="#13113d" fill-rule="nonzero" group-id="3,18,27" node-id="301" stroke="none" target-height="31.540009" target-width="108.76999" target-x="279.04" target-y="459.09"></path></g><path d="M 310.95 474.20 L 289.98 486.31 C 288.90 486.93 287.52 486.56 286.89 485.48 L 261.28 441.12 C 257.31 434.24 259.66 425.45 266.54 421.48 L 266.54 421.48 C 273.41 417.51 282.20 419.87 286.17 426.74 L 311.78 471.09 C 312.41 472.18 312.04 473.57 310.95 474.20 Z" fill="#5a78ec" fill-rule="nonzero" group-id="3" node-id="305" stroke="none" target-height="69.41998" target-width="55.100006" target-x="257.31" target-y="417.51"></path><path d="M 271.79 674.09 L 270.80 681.00 L 309.34 681.14 L 309.67 674.24 Z" fill="#ffb7b7" fill-rule="nonzero" group-id="3" node-id="307" stroke="none" target-height="7.049988" target-width="38.870026" target-x="270.8" target-y="674.09"></path><path d="M 391.36 680.78 L 392.50 689.25 C 392.50 689.25 415.43 690.32 434.08 715.18 L 350.92 715.18 L 350.92 681.01 L 391.36 680.78 Z" fill="#26205c" fill-rule="nonzero" group-id="3,19,28" node-id="313" stroke="none" target-height="34.399963" target-width="83.15997" target-x="350.92" target-y="680.78"></path><g clip-path="url(#SVGID_3_)" group-id="3,19,29" node-id="316"><path d="M 462.06 713.11 L 316.66 713.11 L 316.66 711.04 L 462.06 711.04 Z" fill="#ffffff" fill-rule="nonzero" group-id="3,19,29" node-id="318" stroke="none" target-height="2.0700073" target-width="145.4" target-x="316.66" target-y="711.04"></path></g><path d="M 350.91 674.09 L 350.92 681.00 L 391.36 680.78 L 390.68 674.09 Z" fill="#ffb7b7" fill-rule="nonzero" group-id="3" node-id="322" stroke="none" target-height="6.909973" target-width="40.44998" target-x="350.91" target-y="674.09"></path><path d="M 293.86 381.02 L 286.72 427.69 L 304.85 459.09 L 308.15 459.09 L 289.69 425.75 Z" fill="#4c6ac8" fill-rule="nonzero" group-id="3" node-id="324" stroke="none" target-height="78.07001" target-width="21.429993" target-x="286.72" target-y="381.02"></path><path d="M 344.26 374.46 L 372.93 417.17 L 372.93 423.56 Z" fill="#4c6ac8" fill-rule="nonzero" group-id="3" node-id="326" stroke="none" target-height="49.100006" target-width="28.669983" target-x="344.26" target-y="374.46"></path><path d="M 340.56 368.96 L 369.73 412.41" fill="none" group-id="3" node-id="328" stroke="#232323" stroke-linecap="round" stroke-width="2" target-height="43.450012" target-width="29.170013" target-x="340.56" target-y="368.96"></path><path d="M 289.98 486.31 L 290.90 488.15 L 303.12 482.96 L 311.51 476.27 L 312.97 474.16 L 311.95 472.99 Z" fill="#ffb7b7" fill-rule="nonzero" group-id="3" node-id="330" stroke="none" target-height="15.160004" target-width="22.98999" target-x="289.98" target-y="472.99"></path><path d="M 314.27 470.50 C 314.27 470.50 314.16 481.67 287.27 489.25 L 273.20 668.22" fill="none" group-id="3" node-id="332" stroke="#ffffff" stroke-linecap="round" stroke-width="2" target-height="197.71997" target-width="41.069977" target-x="273.2" target-y="470.5"></path><path d="M 358.59 469.30 C 358.59 469.30 359.17 479.97 372.93 484.51 L 394.85 668.22" fill="none" group-id="3" node-id="334" stroke="#ffffff" stroke-linecap="round" stroke-width="2" target-height="198.91998" target-width="36.26001" target-x="358.59" target-y="469.3"></path><path d="M 293.74 377.39 L 286.17 426.74 L 303.56 456.86" fill="none" group-id="3" node-id="336" stroke="#232323" stroke-linecap="round" stroke-width="2" target-height="79.46997" target-width="17.389984" target-x="286.17" target-y="377.39"></path><path d="M 738.86 472.99 C 738.86 472.99 748.08 436.54 779.40 417.12 C 779.40 417.12 802.90 420.52 796.08 472.99 C 796.08 472.99 803.47 426.18 842.12 435.08 C 842.12 435.08 827.72 450.62 826.77 474.50 C 826.77 474.50 863.15 484.54 853.68 518.64 C 853.68 518.64 872.25 502.35 887.78 499.69 C 887.78 499.69 871.87 530.77 877.93 547.06 C 877.93 547.06 895.55 534.18 917.72 542.14 C 917.72 542.14 892.33 567.53 897.64 585.72 C 897.64 585.72 924.54 574.35 941.59 583.06 C 941.59 583.06 922.65 595.95 911.28 628.16 C 911.28 628.16 924.16 631.19 937.05 658.10 C 937.05 658.10 928.03 664.20 909.00 663.78 C 909.00 663.78 942.87 677.49 937.11 713.46 L 722.18 713.46 L 738.86 472.99 Z" fill="#adcd55" fill-rule="nonzero" group-id="4,20" node-id="343" stroke="none" target-height="296.34003" target-width="220.69" target-x="722.18" target-y="417.12"></path><g clip-path="url(#XMLID_4_)" group-id="4,21" node-id="346"><path d="M 708.67 456.86 L 799.97 456.86 C 801.15 456.86 802.47 456.99 803.83 457.26 C 809.59 458.41 813.74 463.47 814.08 469.33 C 814.30 473.05 814.52 477.67 814.52 480.70 L 814.52 622.47 L 814.52 626.26 L 856.71 626.26 C 856.71 626.26 905.59 646.35 914.69 717.59 L 728.25 717.59 L 708.67 456.86 Z" fill="#6f8037" fill-opacity="0.64" fill-rule="nonzero" group-id="4,21" node-id="348" stroke="none" target-height="260.73004" target-width="206.02002" target-x="708.67" target-y="456.86"></path></g><path d="M 496.33 461.30 C 490.68 461.30 486.10 465.88 486.10 471.53 L 486.10 681.14 C 486.10 681.14 486.02 715.19 500.00 713.46 L 804.42 713.46 L 804.42 471.53 C 804.42 465.88 799.84 461.29 794.18 461.29 L 496.33 461.29 Z" fill="#5a78ec" fill-rule="nonzero" group-id="5,22,30" node-id="358" stroke="none" target-height="253.9" target-width="318.4" target-x="486.02" target-y="461.29"></path><g clip-path="url(#SVGID_4_)" group-id="5,22,31" node-id="361"><path d="M 446.31 619.54 L 833.60 619.54 L 833.60 776.42 L 446.31 776.42 Z" fill="#4d6bce" fill-rule="nonzero" group-id="5,22,31" node-id="363" stroke="none" target-height="156.88" target-width="387.28998" target-x="446.31" target-y="619.54"></path></g><path d="M 906.73 713.46 C 906.73 713.46 902.18 659.61 855.95 631.57 L 570.98 631.57 C 570.98 631.57 625.55 636.19 639.95 713.46 L 906.73 713.46 Z" fill="#5a78ec" fill-rule="nonzero" group-id="5" node-id="367" stroke="none" target-height="81.890015" target-width="335.75" target-x="570.98" target-y="631.57"></path><path d="M 515.15 713.46 C 515.15 713.46 534.76 715.62 539.88 670.22 C 544.46 629.67 579.51 631.57 579.51 631.57 C 579.51 631.57 634.65 629.29 639.95 713.46 L 515.15 713.46 Z" fill="#3a59af" fill-rule="nonzero" group-id="5" node-id="369" stroke="none" target-height="86.33002" target-width="124.79999" target-x="515.15" target-y="629.29"></path><path d="M 747.87 512.83 L 519.41 512.83 C 517.06 512.83 515.15 510.93 515.15 508.57 L 515.15 496.74 C 515.15 494.39 517.06 492.49 519.41 492.49 L 747.87 492.49 C 750.22 492.49 752.12 494.39 752.12 496.74 L 752.12 508.57 C 752.12 510.93 750.22 512.83 747.87 512.83 Z" fill="#ffffff" fill-rule="nonzero" group-id="5" node-id="371" stroke="none" target-height="20.340027" target-width="236.96997" target-x="515.15" target-y="492.49"></path><path d="M 681.93 544.50 L 519.41 544.50 C 517.06 544.50 515.15 542.60 515.15 540.25 L 515.15 528.42 C 515.15 526.07 517.06 524.16 519.41 524.16 L 681.93 524.16 C 684.28 524.16 686.18 526.07 686.18 528.42 L 686.18 540.25 C 686.18 542.60 684.28 544.50 681.93 544.50 Z" fill="#ffffff" fill-rule="nonzero" group-id="5" node-id="373" stroke="none" target-height="20.340027" target-width="171.02997" target-x="515.15" target-y="524.16"></path><path d="M 614.94 560.04 L 516.93 560.04 C 515.95 560.04 515.15 559.25 515.15 558.26 L 515.15 557.61 C 515.15 556.63 515.95 555.83 516.93 555.83 L 614.94 555.83 C 615.92 555.83 616.71 556.63 616.71 557.61 L 616.71 558.26 C 616.71 559.25 615.92 560.04 614.94 560.04 Z" fill="#ffffff" fill-rule="nonzero" group-id="5" node-id="375" stroke="none" target-height="4.209961" target-width="101.56" target-x="515.15" target-y="555.83"></path><path d="M 745.04 646.73 L 647.03 646.73 C 646.05 646.73 645.26 645.93 645.26 644.95 L 645.26 644.29 C 645.26 643.32 646.05 642.52 647.03 642.52 L 745.04 642.52 C 746.02 642.52 746.82 643.31 746.82 644.29 L 746.82 644.95 C 746.82 645.93 746.02 646.73 745.04 646.73 Z" fill="#ffffff" fill-rule="nonzero" group-id="5" node-id="377" stroke="none" target-height="4.209961" target-width="101.56" target-x="645.26" target-y="642.52"></path><path d="M 799.11 657.34 L 652.34 657.34 C 651.36 657.34 650.56 656.54 650.56 655.56 L 650.56 654.91 C 650.56 653.93 651.36 653.13 652.34 653.13 L 799.11 653.13 C 800.09 653.13 800.88 653.92 800.88 654.91 L 800.88 655.56 C 800.88 656.54 800.09 657.34 799.11 657.34 Z" fill="#ffffff" fill-rule="nonzero" group-id="5" node-id="379" stroke="none" target-height="4.210022" target-width="150.32" target-x="650.56" target-y="653.13"></path><path d="M 778.11 670.32 L 659.41 670.32 C 658.43 670.32 657.64 669.52 657.64 668.54 L 657.64 667.89 C 657.64 666.91 658.43 666.11 659.41 666.11 L 778.11 666.11 C 779.09 666.11 779.88 666.91 779.88 667.89 L 779.88 668.54 C 779.88 669.53 779.09 670.32 778.11 670.32 Z" fill="#ffffff" fill-rule="nonzero" group-id="5" node-id="381" stroke="none" target-height="4.210022" target-width="122.23999" target-x="657.64" target-y="666.11"></path><path d="M 548.75 571.46 L 516.93 571.46 C 515.95 571.46 515.15 570.66 515.15 569.68 L 515.15 569.03 C 515.15 568.05 515.95 567.25 516.93 567.25 L 548.75 567.25 C 549.73 567.25 550.52 568.05 550.52 569.03 L 550.52 569.68 C 550.52 570.66 549.73 571.46 548.75 571.46 Z" fill="#ffffff" fill-rule="nonzero" group-id="5" node-id="383" stroke="none" target-height="4.210022" target-width="35.369995" target-x="515.15" target-y="567.25"></path><path d="M 665.08 571.46 L 561.77 571.46 C 560.79 571.46 560.00 570.66 560.00 569.68 L 560.00 569.03 C 560.00 568.05 560.79 567.25 561.77 567.25 L 665.08 567.25 C 666.06 567.25 666.86 568.05 666.86 569.03 L 666.86 569.68 C 666.86 570.66 666.06 571.46 665.08 571.46 Z" fill="#ffffff" fill-rule="nonzero" group-id="5" node-id="385" stroke="none" target-height="4.210022" target-width="106.859985" target-x="560" target-y="567.25"></path><path d="M 583.23 582.88 L 516.93 582.88 C 515.95 582.88 515.15 582.09 515.15 581.10 L 515.15 580.45 C 515.15 579.47 515.95 578.67 516.93 578.67 L 583.23 578.67 C 584.21 578.67 585.01 579.47 585.01 580.45 L 585.01 581.10 C 585.01 582.09 584.21 582.88 583.23 582.88 Z" fill="#ffffff" fill-rule="nonzero" group-id="5" node-id="387" stroke="none" target-height="4.210022" target-width="69.859985" target-x="515.15" target-y="578.67"></path><path d="M 610.51 582.88 L 597.90 582.88 C 596.92 582.88 596.12 582.09 596.12 581.10 L 596.12 580.45 C 596.12 579.47 596.92 578.67 597.90 578.67 L 610.51 578.67 C 611.50 578.67 612.29 579.47 612.29 580.45 L 612.29 581.10 C 612.29 582.09 611.50 582.88 610.51 582.88 Z" fill="#ffffff" fill-rule="nonzero" group-id="5" node-id="389" stroke="none" target-height="4.210022" target-width="16.169983" target-x="596.12" target-y="578.67"></path><path d="M 524.24 594.30 L 516.93 594.30 C 515.95 594.30 515.15 593.50 515.15 592.52 L 515.15 591.87 C 515.15 590.89 515.95 590.09 516.93 590.09 L 524.24 590.09 C 525.22 590.09 526.02 590.89 526.02 591.87 L 526.02 592.52 C 526.02 593.50 525.22 594.30 524.24 594.30 Z" fill="#ffffff" fill-rule="nonzero" group-id="5" node-id="391" stroke="none" target-height="4.209961" target-width="10.869995" target-x="515.15" target-y="590.09"></path><path d="M 574.64 594.30 L 534.61 594.30 C 533.63 594.30 532.84 593.50 532.84 592.52 L 532.84 591.87 C 532.84 590.89 533.63 590.09 534.61 590.09 L 574.64 590.09 C 575.62 590.09 576.42 590.89 576.42 591.87 L 576.42 592.52 C 576.42 593.50 575.62 594.30 574.64 594.30 Z" fill="#ffffff" fill-rule="nonzero" group-id="5" node-id="393" stroke="none" target-height="4.209961" target-width="43.579956" target-x="532.84" target-y="590.09"></path><path d="M 849.01 660.97 L 851.52 666.41 C 851.75 666.92 852.22 667.28 852.75 667.36 L 858.34 668.24 C 859.68 668.45 860.22 670.21 859.25 671.22 L 855.20 675.46 C 854.81 675.86 854.64 676.44 854.73 677.01 L 855.68 682.99 C 855.91 684.42 854.51 685.51 853.32 684.83 L 848.31 682.01 C 847.84 681.74 847.27 681.74 846.79 682.01 L 841.79 684.83 C 840.59 685.51 839.19 684.42 839.42 682.99 L 840.38 677.01 C 840.47 676.44 840.29 675.86 839.91 675.46 L 835.86 671.22 C 834.89 670.21 835.42 668.45 836.76 668.24 L 842.36 667.36 C 842.89 667.28 843.35 666.92 843.59 666.41 L 846.09 660.97 C 846.69 659.66 848.42 659.66 849.01 660.97 Z" fill="#ffffff" fill-rule="nonzero" group-id="5" node-id="395" stroke="none" target-height="25.850037" target-width="25.329956" target-x="834.89" target-y="659.66"></path><path d="M 500.00 675.09 C 499.45 675.09 499.00 674.64 499.00 674.09 L 499.00 465.08 C 499.00 458.54 504.32 453.22 510.86 453.22 L 805.80 453.22 C 812.28 453.22 817.54 458.49 817.54 464.96 L 817.54 627.02 C 817.54 627.57 817.10 628.02 816.54 628.02 C 815.99 628.02 815.54 627.57 815.54 627.02 L 815.54 464.96 C 815.54 459.59 811.17 455.22 805.80 455.22 L 510.86 455.22 C 505.42 455.22 501.00 459.64 501.00 465.08 L 501.00 674.09 C 501.00 674.64 500.55 675.09 500.00 675.09 Z" fill="#232323" fill-rule="nonzero" group-id="5" node-id="397" stroke="none" target-height="221.87003" target-width="318.53998" target-x="499" target-y="453.22"></path><path d="M 884.34 361.83 L 658.27 361.83 L 711.94 325.38 L 711.94 231.06 C 711.94 226.44 715.69 222.69 720.31 222.69 L 884.34 222.69 C 888.96 222.69 892.71 226.44 892.71 231.06 L 892.71 353.46 C 892.71 358.08 888.96 361.83 884.34 361.83 Z" fill="#ff6666" fill-rule="nonzero" group-id="6,23,32" node-id="406" stroke="none" target-height="139.13998" target-width="234.44" target-x="658.27" target-y="222.69"></path><g clip-path="url(#XMLID_5_)" group-id="6,23,33" node-id="409"><path d="M 666.48 183.65 L 920.37 183.65 L 920.37 248.83 L 666.48 248.83 Z" fill="#ffffff" fill-rule="nonzero" group-id="6,23,33" node-id="411" stroke="none" target-height="65.18001" target-width="253.89001" target-x="666.48" target-y="183.65"></path></g><path d="M 835.83 236.45 C 835.83 239.50 833.36 241.97 830.31 241.97 C 827.26 241.97 824.79 239.50 824.79 236.45 C 824.79 233.40 827.26 230.93 830.31 230.93 C 833.36 230.93 835.83 233.40 835.83 236.45 Z" fill="#f06361" fill-rule="nonzero" group-id="6" node-id="415" stroke="none" target-height="11.040009" target-width="11.040039" target-x="824.79" target-y="230.93"></path><path d="M 856.13 236.45 C 856.13 239.50 853.66 241.97 850.61 241.97 C 847.56 241.97 845.09 239.50 845.09 236.45 C 845.09 233.40 847.56 230.93 850.61 230.93 C 853.66 230.93 856.13 233.40 856.13 236.45 Z" fill="#f8bb3f" fill-rule="nonzero" group-id="6" node-id="417" stroke="none" target-height="11.040009" target-width="11.039978" target-x="845.09" target-y="230.93"></path><path d="M 876.43 236.45 C 876.43 239.50 873.96 241.97 870.91 241.97 C 867.86 241.97 865.39 239.50 865.39 236.45 C 865.39 233.40 867.86 230.93 870.91 230.93 C 873.96 230.93 876.43 233.40 876.43 236.45 Z" fill="#2fc843" fill-rule="nonzero" group-id="6" node-id="419" stroke="none" target-height="11.040009" target-width="11.039978" target-x="865.39" target-y="230.93"></path><path d="M 811.18 303.55 L 856.13 303.55 C 856.13 328.20 835.84 348.50 811.18 348.50 C 786.53 348.50 766.24 328.20 766.24 303.55 C 766.24 278.89 786.53 258.60 811.18 258.60 C 811.20 258.60 811.22 258.60 811.23 258.60 L 811.18 303.55 Z" fill="#ffffff" fill-rule="nonzero" group-id="6" node-id="421" stroke="none" target-height="89.899994" target-width="89.890015" target-x="766.24" target-y="258.6"></path><path d="M 813.59 301.25 L 813.52 256.30 C 813.54 256.30 813.56 256.30 813.59 256.30 C 838.24 256.30 858.53 276.59 858.53 301.25 L 813.59 301.25 Z" fill="#ffffff" fill-rule="nonzero" group-id="6" node-id="423" stroke="none" target-height="44.950012" target-width="45.01001" target-x="813.52" target-y="256.3"></path><path d="M 728.25 259.83 L 752.18 259.83 L 752.18 283.76 L 728.25 283.76 Z" fill="#ffffff" fill-rule="nonzero" group-id="6" node-id="425" stroke="none" target-height="23.930023" target-width="23.929993" target-x="728.25" target-y="259.83"></path><path d="M 728.25 293.19 L 752.18 293.19 L 752.18 317.12 L 728.25 317.12 Z" fill="#ffffff" fill-rule="nonzero" group-id="6" node-id="427" stroke="none" target-height="23.929993" target-width="23.929993" target-x="728.25" target-y="293.19"></path><path d="M 767.42 330.79 L 729.25 330.79 C 728.70 330.79 728.25 330.34 728.25 329.79 L 728.25 329.79 C 728.25 329.24 728.70 328.79 729.25 328.79 L 767.42 328.79 C 767.97 328.79 768.42 329.24 768.42 329.79 L 768.42 329.79 C 768.42 330.34 767.97 330.79 767.42 330.79 Z" fill="#ffffff" fill-rule="nonzero" group-id="6" node-id="429" stroke="none" target-height="2" target-width="40.169983" target-x="728.25" target-y="328.79"></path><path d="M 767.42 337.36 L 729.25 337.36 C 728.70 337.36 728.25 336.91 728.25 336.36 L 728.25 336.36 C 728.25 335.81 728.70 335.36 729.25 335.36 L 767.42 335.36 C 767.97 335.36 768.42 335.81 768.42 336.36 L 768.42 336.36 C 768.42 336.91 767.97 337.36 767.42 337.36 Z" fill="#ffffff" fill-rule="nonzero" group-id="6" node-id="431" stroke="none" target-height="2" target-width="40.169983" target-x="728.25" target-y="335.36"></path><path d="M 746.76 343.92 L 729.25 343.92 C 728.70 343.92 728.25 343.48 728.25 342.93 L 728.25 342.93 C 728.25 342.38 728.70 341.93 729.25 341.93 L 746.76 341.93 C 747.31 341.93 747.76 342.38 747.76 342.93 L 747.76 342.93 C 747.76 343.47 747.31 343.92 746.76 343.92 Z" fill="#ffffff" fill-rule="nonzero" group-id="6" node-id="433" stroke="none" target-height="1.9900208" target-width="19.51001" target-x="728.25" target-y="341.93"></path><path d="M 888.16 355.49 L 734.74 355.49 C 726.88 355.49 720.48 349.10 720.48 341.23 L 720.48 231.19 C 720.48 223.32 726.88 216.92 734.74 216.92 L 888.16 216.92 C 896.03 216.92 902.43 223.32 902.43 231.19 L 902.43 341.23 C 902.43 349.10 896.03 355.49 888.16 355.49 Z M 734.74 218.92 C 727.98 218.92 722.48 224.42 722.48 231.19 L 722.48 341.23 C 722.48 347.99 727.98 353.49 734.74 353.49 L 888.16 353.49 C 894.93 353.49 900.43 347.99 900.43 341.23 L 900.43 231.19 C 900.43 224.42 894.93 218.92 888.16 218.92 L 734.74 218.92 Z" fill="#232323" fill-rule="nonzero" group-id="6" node-id="435" stroke="none" target-height="138.56999" target-width="181.95001" target-x="720.48" target-y="216.92"></path><path d="M 381.96 315.02 L 380.40 316.79 C 379.55 317.75 378.07 317.84 377.11 316.99 L 362.64 304.19 C 361.69 303.34 361.60 301.87 362.44 300.91 L 364.00 299.14 C 364.85 298.18 366.33 298.09 367.29 298.94 L 381.76 311.74 C 382.71 312.59 382.81 314.06 381.96 315.02 Z" fill="#ffffff" fill-rule="nonzero" node-id="438" stroke="none" target-height="19.75" target-width="21.209991" target-x="361.6" target-y="298.09"></path><path d="M 405.95 284.44 L 407.69 286.04 C 408.63 286.90 408.69 288.38 407.83 289.32 L 381.57 317.94 C 380.70 318.89 379.22 318.95 378.28 318.08 L 376.54 316.49 C 375.60 315.63 375.54 314.15 376.40 313.20 L 402.66 284.58 C 403.52 283.64 405.00 283.58 405.95 284.44 Z" fill="#ffffff" fill-rule="nonzero" node-id="440" stroke="none" target-height="35.370026" target-width="33.149994" target-x="375.54" target-y="283.58"></path><path d="M 214.42 351.54 L 184.46 351.54 C 183.91 351.54 183.46 351.09 183.46 350.54 L 183.46 316.79 C 183.46 316.24 183.91 315.79 184.46 315.79 C 185.01 315.79 185.46 316.24 185.46 316.79 L 185.46 349.54 L 214.42 349.54 C 214.97 349.54 215.42 349.99 215.42 350.54 C 215.42 351.09 214.97 351.54 214.42 351.54 Z" fill="#232323" fill-rule="nonzero" node-id="442" stroke="none" target-height="35.75" target-width="31.959991" target-x="183.46" target-y="315.79"></path><path d="M 851.03 608.69 C 850.99 608.69 850.94 608.69 850.90 608.69 C 850.35 608.62 849.97 608.12 850.03 607.57 C 853.06 583.73 873.94 552.38 874.83 551.05 C 875.13 550.59 875.76 550.47 876.22 550.78 C 876.67 551.09 876.80 551.71 876.49 552.17 C 876.27 552.49 854.99 584.46 852.02 607.82 C 851.96 608.33 851.52 608.69 851.03 608.69 Z" fill="#5a6c1c" fill-rule="nonzero" node-id="444" stroke="none" target-height="58.22003" target-width="26.830017" target-x="849.97" target-y="550.47"></path><path d="M 829.05 606.72 C 828.53 606.72 828.09 606.31 828.05 605.78 C 825.41 567.47 849.90 522.03 850.15 521.57 C 850.41 521.09 851.02 520.91 851.51 521.17 C 851.99 521.44 852.17 522.05 851.90 522.53 C 851.66 522.98 827.44 567.92 830.05 605.65 C 830.08 606.20 829.67 606.67 829.12 606.71 C 829.09 606.72 829.07 606.72 829.05 606.72 Z" fill="#5a6c1c" fill-rule="nonzero" node-id="446" stroke="none" target-height="85.81" target-width="26.76001" target-x="825.41" target-y="520.91"></path><path d="M 863.34 622.34 C 863.16 622.34 862.97 622.28 862.80 622.18 C 862.34 621.88 862.20 621.26 862.50 620.79 C 879.36 594.65 894.78 589.36 895.43 589.14 C 895.95 588.97 896.52 589.26 896.69 589.78 C 896.87 590.30 896.58 590.87 896.06 591.04 C 895.90 591.10 880.61 596.40 864.18 621.88 C 863.99 622.18 863.67 622.34 863.34 622.34 Z" fill="#5a6c1c" fill-rule="nonzero" node-id="448" stroke="none" target-height="33.370056" target-width="34.669983" target-x="862.2" target-y="588.97"></path><path d="M 211.21 402.35 L 186.66 402.35 C 184.90 402.35 183.46 400.91 183.46 399.15 L 183.46 399.15 C 183.46 397.38 184.90 395.94 186.66 395.94 L 211.21 395.94 C 212.98 395.94 214.42 397.38 214.42 399.15 L 214.42 399.15 C 214.42 400.91 212.98 402.35 211.21 402.35 Z" fill="#ffd840" fill-rule="nonzero" node-id="450" stroke="none" target-height="6.4100037" target-width="30.959991" target-x="183.46" target-y="395.94"></path><path d="M 211.21 429.97 L 186.66 429.97 C 184.90 429.97 183.46 428.53 183.46 426.76 L 183.46 426.76 C 183.46 425.00 184.90 423.56 186.66 423.56 L 211.21 423.56 C 212.98 423.56 214.42 425.00 214.42 426.76 L 214.42 426.76 C 214.42 428.53 212.98 429.97 211.21 429.97 Z" fill="#ffd840" fill-rule="nonzero" node-id="452" stroke="none" target-height="6.4100037" target-width="30.959991" target-x="183.46" target-y="423.56"></path><path d="M 187.82 416.26 L 154.75 416.26 C 152.99 416.26 151.55 414.82 151.55 413.05 L 151.55 413.05 C 151.55 411.29 152.99 409.85 154.75 409.85 L 187.82 409.85 C 189.58 409.85 191.03 411.29 191.03 413.05 L 191.03 413.05 C 191.03 414.82 189.58 416.26 187.82 416.26 Z" fill="#ffd840" fill-rule="nonzero" node-id="454" stroke="none" target-height="6.4100037" target-width="39.479996" target-x="151.55" target-y="409.85"></path><path d="M 242.13 416.26 L 209.07 416.26 C 207.31 416.26 205.86 414.82 205.86 413.05 L 205.86 413.05 C 205.86 411.29 207.31 409.85 209.07 409.85 L 242.13 409.85 C 243.90 409.85 245.34 411.29 245.34 413.05 L 245.34 413.05 C 245.34 414.82 243.90 416.26 242.13 416.26 Z" fill="#ffd840" fill-rule="nonzero" node-id="456" stroke="none" target-height="6.4100037" target-width="39.479996" target-x="205.86" target-y="409.85"></path></svg>