<?xml version="1.0" standalone="no"?><!DOCTYPE svg PUBLIC "-//W3C//DTD SVG 1.1//EN" "http://www.w3.org/Graphics/SVG/1.1/DTD/svg11.dtd"><svg height="1000" node-id="1" sillyvg="true" template-height="1000" template-width="1000" version="1.1" viewBox="0 0 1000 1000" width="1000" xmlns="http://www.w3.org/2000/svg" xmlns:xlink="http://www.w3.org/1999/xlink"><defs node-id="184"><clipPath id="XMLID_2_" node-id="7"><path d="M 445.55 611.51 C 445.55 611.51 268.05 751.30 154.36 619.57 C 40.68 487.83 150.33 199.09 287.44 236.06 C 358.71 255.27 481.76 241.45 583.51 223.74 C 727.75 198.63 864.01 301.89 876.46 447.78 C 881.49 506.67 865.64 565.36 808.89 611.51 C 627.29 759.19 673.52 649.86 630.70 593.86 C 587.88 537.86 507.85 538.14 445.55 611.51 Z" fill="#000000" fill-rule="nonzero" node-id="187" stroke="none" target-height="560.56" target-width="840.81" target-x="40.68" target-y="198.63"></path></clipPath><clipPath id="XMLID_3_" node-id="20"><path d="M 712.59 298.72 L 509.67 298.72 L 306.75 298.72 L 176.01 267.23 L 176.01 598.76 L 312.44 548.09 L 509.67 548.09 L 706.90 548.09 L 843.32 598.76 L 843.32 267.23 Z" fill="#000000" fill-rule="nonzero" node-id="191" stroke="none" target-height="331.53" target-width="667.31" target-x="176.01" target-y="267.23"></path></clipPath><clipPath id="XMLID_4_" node-id="35"><path d="M 613.08 509.16 L 485.64 509.16 C 483.79 509.16 482.28 507.64 482.28 505.79 L 482.28 326.09 C 482.28 324.24 483.79 322.72 485.64 322.72 L 613.08 322.72 C 614.93 322.72 616.44 324.24 616.44 326.09 L 616.44 505.79 C 616.44 507.64 614.93 509.16 613.08 509.16 Z" fill="#000000" fill-rule="nonzero" node-id="195" stroke="none" target-height="186.44" target-width="134.16" target-x="482.28" target-y="322.72"></path></clipPath><clipPath id="XMLID_5_" node-id="41"><path d="M 613.08 509.16 L 545.24 509.16 L 545.24 440.70 L 616.44 440.70 L 616.44 505.79 C 616.44 507.64 614.93 509.16 613.08 509.16 Z" fill="#000000" fill-rule="nonzero" node-id="199" stroke="none" target-height="68.45999" target-width="71.20001" target-x="545.24" target-y="440.7"></path></clipPath><clipPath id="SVGID_1_" node-id="55"><path d="M 693.23 437.44 C 692.26 437.05 691.20 436.83 690.09 436.85 L 674.98 437.08 L 673.86 434.58 C 673.20 433.14 671.74 432.23 670.15 432.30 L 656.92 432.88 C 655.52 432.94 654.27 433.76 653.66 435.01 L 652.11 438.18 L 637.28 438.18 C 635.99 438.18 634.79 438.54 633.77 439.14 C 631.54 440.08 629.69 441.92 628.84 444.37 L 622.00 464.12 L 602.66 443.20 C 602.08 442.57 601.10 442.54 600.47 443.11 L 589.76 453.01 C 589.14 453.59 589.10 454.56 589.67 455.18 L 618.72 486.61 C 619.49 487.44 620.38 488.08 621.35 488.54 C 621.77 488.77 622.21 488.98 622.68 489.15 C 627.27 490.74 632.33 488.28 633.92 483.69 L 635.72 478.51 L 638.55 495.76 L 681.45 492.69 C 681.45 492.69 701.01 496.41 701.01 491.03 L 701.01 447.01 C 701.01 442.32 697.66 438.37 693.23 437.44 Z" fill="#000000" fill-rule="nonzero" node-id="203" stroke="none" target-height="64.17999" target-width="111.910034" target-x="589.1" target-y="432.23"></path></clipPath><clipPath id="XMLID_7_" node-id="63"><path d="M 603.64 721.96 L 626.02 721.96 L 625.98 720.48 L 626.08 718.97 L 626.43 716.90 L 627.08 714.77 L 628.21 712.51 L 629.20 711.11 L 630.51 709.80 L 632.17 708.57 L 633.99 707.62 L 636.28 706.88 L 639.14 706.38 L 640.99 706.13 L 642.84 705.76 L 645.31 705.09 L 647.81 704.16 L 650.29 702.85 L 651.80 701.76 L 653.07 700.47 L 654.11 698.98 L 654.81 697.33 L 655.10 695.38 L 654.96 693.05 L 603.64 693.05 L 603.64 721.96 Z" fill="#000000" fill-rule="nonzero" node-id="207" stroke="none" target-height="28.910034" target-width="51.45996" target-x="603.64" target-y="693.05"></path></clipPath><clipPath id="SVGID_2_" node-id="71"><path d="M 638.55 495.76 L 623.71 663.29 L 661.43 663.29 L 665.81 516.43 L 676.84 663.29 L 712.84 663.29 L 690.92 491.03 Z" fill="#000000" fill-rule="nonzero" node-id="211" stroke="none" target-height="172.25998" target-width="89.130005" target-x="623.71" target-y="491.03"></path></clipPath><clipPath id="XMLID_8_" node-id="84"><path d="M 682.68 670.71 L 705.06 670.71 C 705.06 670.71 703.57 684.79 718.19 686.29 C 718.19 686.29 736.09 687.78 734.00 699.61 L 682.68 699.61 L 682.68 670.71 Z" fill="#000000" fill-rule="nonzero" node-id="215" stroke="none" target-height="28.899963" target-width="53.410034" target-x="682.68" target-y="670.71"></path></clipPath><clipPath id="SVGID_3_" node-id="122"><path d="M 419.98 400.41 C 402.97 418.03 394.12 416.89 394.12 416.89 L 369.01 393.51 C 369.01 393.51 369.61 382.05 384.73 366.38 C 400.91 349.62 421.92 343.64 431.65 353.04 C 441.39 362.43 436.16 383.64 419.98 400.41 Z" fill="#000000" fill-rule="nonzero" node-id="219" stroke="none" target-height="74.389984" target-width="72.380005" target-x="369.01" target-y="343.64"></path></clipPath><clipPath id="SVGID_4_" node-id="135"><path d="M 416.75 393.30 C 399.74 410.93 390.88 409.78 390.88 409.78 L 365.78 386.40 C 365.78 386.40 366.37 374.94 381.50 359.28 C 397.68 342.51 418.69 336.54 428.42 345.93 C 438.16 355.33 432.93 376.54 416.75 393.30 Z" fill="#000000" fill-rule="nonzero" node-id="223" stroke="none" target-height="74.389984" target-width="72.380005" target-x="365.78" target-y="336.54"></path></clipPath></defs><g node-id="616"><g node-id="626"><path d="M 445.55 611.51 C 445.55 611.51 268.05 751.30 154.36 619.57 C 40.68 487.83 150.33 199.09 287.44 236.06 C 358.71 255.27 481.76 241.45 583.51 223.74 C 727.75 198.63 864.01 301.89 876.46 447.78 C 881.49 506.67 865.64 565.36 808.89 611.51 C 627.29 759.19 673.52 649.86 630.70 593.86 C 587.88 537.86 507.85 538.14 445.55 611.51 Z" fill="#ffebe5" fill-rule="nonzero" group-id="1,11" node-id="233" stroke="none" target-height="560.56" target-width="840.81" target-x="40.68" target-y="198.63"></path></g><g node-id="627"><g clip-path="url(#XMLID_2_)" group-id="1,12" node-id="236"><path d="M 86.84 350.90 C 70.59 350.90 60.85 349.61 60.62 349.58 L 60.90 347.60 C 61.45 347.68 116.94 355.00 185.69 334.08 C 249.10 314.79 337.12 266.80 396.30 147.78 L 398.09 148.67 C 371.81 201.51 337.73 244.96 296.78 277.81 C 264.01 304.09 226.80 323.68 186.18 336.02 C 145.70 348.33 109.78 350.90 86.84 350.90 Z" fill="#ffffff" fill-rule="nonzero" group-id="1,12" node-id="238" stroke="none" target-height="207.22" target-width="337.47" target-x="60.62" target-y="147.78"></path></g></g><g node-id="628"><g clip-path="url(#XMLID_2_)" group-id="1,13" node-id="241"><path d="M 13.96 555.90 L 12.07 555.26 C 12.24 554.74 30.20 502.26 76.32 458.18 C 103.42 432.28 134.80 414.28 169.58 404.70 C 213.03 392.73 261.93 393.93 314.92 408.27 C 372.45 423.85 412.27 419.13 433.29 394.25 C 458.58 364.29 452.03 309.90 442.08 269.56 C 431.26 225.69 414.19 188.50 414.02 188.12 L 415.83 187.29 C 416.01 187.66 433.15 225.03 444.02 269.08 C 454.08 309.88 460.65 364.93 434.81 395.54 C 413.26 421.06 372.74 426.00 314.39 410.20 C 195.28 377.96 119.96 419.25 77.76 459.57 C 31.97 503.31 14.14 555.38 13.96 555.90 Z" fill="#ffffff" fill-rule="nonzero" group-id="1,13" node-id="243" stroke="none" target-height="368.61005" target-width="448.58" target-x="12.07" target-y="187.29"></path></g></g><g node-id="629"><g clip-path="url(#XMLID_2_)" group-id="1,14" node-id="246"><path d="M 81.45 770.19 C 81.23 769.70 58.91 720.91 44.38 664.58 C 35.84 631.47 31.61 602.25 31.82 577.75 C 32.09 546.99 39.39 523.57 53.53 508.16 C 79.69 479.64 129.29 478.24 200.93 504.00 C 354.52 559.21 431.39 580.17 484.59 581.32 C 540.57 582.51 571.43 561.54 611.99 519.75 C 627.28 504.00 644.77 497.37 663.98 500.02 C 694.11 504.20 728.42 530.89 765.95 579.34 C 794.88 616.69 818.17 657.40 829.48 678.35 L 827.72 679.30 C 806.56 640.11 732.22 511.51 663.70 502.01 C 645.16 499.44 628.25 505.88 613.42 521.15 C 573.59 562.19 543.00 583.37 489.15 583.37 C 487.63 583.37 486.10 583.35 484.54 583.32 C 431.11 582.16 354.06 561.17 200.26 505.88 C 129.44 480.43 80.57 481.65 55.00 509.51 C 23.67 543.66 32.99 612.42 46.32 664.08 C 60.81 720.24 83.05 768.87 83.27 769.36 L 81.45 770.19 Z" fill="#ffffff" fill-rule="nonzero" group-id="1,14" node-id="248" stroke="none" target-height="291.95" target-width="805.81" target-x="23.67" target-y="478.24"></path></g></g><g clip-path="url(#XMLID_2_)" group-id="1,15" node-id="251"><path d="M 560.01 359.70 C 531.95 359.70 513.38 351.36 504.82 334.90 C 493.19 312.56 499.79 276.08 524.41 226.49 C 542.68 189.69 564.61 159.01 564.83 158.70 L 566.46 159.87 C 565.59 161.08 479.54 281.98 506.59 333.98 C 514.95 350.03 533.47 358.01 561.63 357.69 C 639.68 356.80 687.72 323.46 714.27 295.64 C 749.46 258.78 762.36 216.89 762.70 189.97 L 764.70 189.99 C 764.35 217.29 751.30 259.74 715.72 297.02 C 688.90 325.12 640.40 358.79 561.65 359.69 C 561.10 359.69 560.55 359.70 560.01 359.70 Z" fill="#ffffff" fill-rule="nonzero" group-id="1,15" node-id="253" stroke="none" target-height="201.00002" target-width="285.16" target-x="479.54" target-y="158.7"></path></g></g><path d="M 248.39 672.21 C 247.56 672.21 246.89 671.53 246.89 670.71 L 246.89 224.55 C 246.89 152.60 305.43 94.06 377.38 94.06 C 449.33 94.06 507.87 152.60 507.87 224.55 C 507.87 225.37 507.19 226.05 506.37 226.05 C 505.54 226.05 504.87 225.37 504.87 224.55 C 504.87 154.25 447.68 97.06 377.38 97.06 C 307.08 97.06 249.89 154.25 249.89 224.55 L 249.89 670.71 C 249.89 671.53 249.22 672.21 248.39 672.21 Z" fill="#5a6c1c" fill-rule="nonzero" node-id="257" stroke="none" target-height="578.15" target-width="260.97998" target-x="246.89" target-y="94.06"></path><path d="M 932.15 745.28 L 87.19 745.28 L 174.35 652.48 L 844.99 652.48 Z" fill="#26205c" fill-rule="nonzero" node-id="259" stroke="none" target-height="92.80005" target-width="844.96" target-x="87.19" target-y="652.48"></path><path d="M 87.19 745.28 L 932.15 745.28 L 932.15 759.19 L 87.19 759.19 Z" fill="#26205c" fill-rule="nonzero" node-id="261" stroke="none" target-height="13.909973" target-width="844.96" target-x="87.19" target-y="745.28"></path><path d="M 712.59 298.72 L 509.67 298.72 L 306.75 298.72 L 176.01 267.23 L 176.01 598.76 L 312.44 548.09 L 509.67 548.09 L 706.90 548.09 L 843.32 598.76 L 843.32 267.23 Z" fill="#ffffff" fill-rule="nonzero" group-id="2,16" node-id="267" stroke="none" target-height="331.53" target-width="667.31" target-x="176.01" target-y="267.23"></path><g clip-path="url(#XMLID_3_)" group-id="2,17" node-id="270"><path d="M 124.86 203.62 L 311.30 203.62 L 311.30 635.05 L 124.86 635.05 Z" fill="#eaeaff" fill-rule="nonzero" group-id="2,17" node-id="272" stroke="none" target-height="431.43" target-width="186.43999" target-x="124.86" target-y="203.62"></path></g><g clip-path="url(#XMLID_3_)" group-id="2,18" node-id="275"><path d="M 707.72 208.95 L 889.21 208.95 L 889.21 643.22 L 707.72 643.22 Z" fill="#eaeaff" fill-rule="nonzero" group-id="2,18" node-id="277" stroke="none" target-height="434.26996" target-width="181.49005" target-x="707.72" target-y="208.95"></path></g><g clip-path="url(#XMLID_3_)" group-id="2,19" node-id="280"><path d="M 318.26 586.82 C 318.23 586.05 316.06 509.73 350.60 473.90 C 362.47 461.58 377.38 455.31 394.93 455.25 C 421.33 455.17 453.70 446.49 481.51 432.04 C 508.35 418.09 525.72 401.36 526.84 388.37 C 527.86 376.63 515.82 368.19 492.01 363.95 C 468.73 359.80 455.19 352.86 452.85 343.87 C 451.40 338.31 454.26 332.39 461.14 326.75 C 478.35 312.67 520.39 301.82 549.80 316.15 C 576.11 328.98 588.56 334.36 597.41 332.05 C 606.35 329.72 611.76 319.40 622.52 298.84 L 622.83 298.25 L 624.60 299.18 L 624.29 299.77 C 611.79 323.64 606.09 334.53 593.36 334.53 C 584.07 334.54 571.05 328.74 548.92 317.95 C 520.65 304.18 478.80 314.88 462.41 328.30 C 458.06 331.86 453.21 337.36 454.78 343.37 C 456.88 351.43 470.23 358.04 492.36 361.98 C 523.92 367.60 529.62 379.53 528.83 388.54 C 526.23 418.55 451.14 457.08 394.93 457.25 C 377.95 457.31 363.52 463.37 352.04 475.28 C 318.09 510.51 320.23 585.99 320.25 586.75 L 318.26 586.82 Z" fill="#5a78ec" fill-opacity="0.54" fill-rule="nonzero" group-id="2,19" node-id="282" stroke="none" target-height="288.57" target-width="308.53998" target-x="316.06" target-y="298.25"></path></g><g clip-path="url(#XMLID_3_)" group-id="2,20" node-id="285"><path d="M 464.50 587.75 C 461.25 586.83 384.92 565.11 382.73 537.40 C 381.94 527.32 391.06 517.82 409.87 509.17 C 441.59 494.57 466.21 490.27 485.99 486.83 C 517.99 481.25 537.30 477.89 554.72 436.65 C 568.19 404.78 591.10 410.42 611.31 415.40 C 624.54 418.67 637.05 421.75 646.47 415.14 C 654.91 409.22 660.12 395.87 662.41 374.31 C 666.30 337.77 667.27 313.91 667.92 298.11 C 669.04 270.55 669.28 264.82 682.05 254.30 L 683.32 255.85 C 671.24 265.79 671.04 270.74 669.92 298.19 C 669.27 314.01 668.29 337.92 664.40 374.53 C 662.05 396.69 656.56 410.50 647.62 416.77 C 637.45 423.90 624.52 420.72 610.83 417.34 C 590.44 412.32 569.37 407.13 556.56 437.43 C 538.71 479.67 519.00 483.11 486.34 488.80 C 466.67 492.23 442.19 496.49 410.70 510.98 C 392.74 519.25 384.00 528.09 384.73 537.25 C 386.81 563.57 464.26 585.60 465.04 585.82 L 464.50 587.75 Z" fill="#5a78ec" fill-opacity="0.54" fill-rule="nonzero" group-id="2,20" node-id="287" stroke="none" target-height="333.45" target-width="301.38" target-x="381.94" target-y="254.3"></path></g><g clip-path="url(#XMLID_3_)" group-id="2,21" node-id="290"><path d="M 665.11 573.59 L 663.11 573.53 C 664.02 543.04 643.70 516.88 602.72 495.79 C 592.56 490.56 583.64 490.11 576.20 494.46 C 552.71 508.21 550.38 565.08 550.36 565.65 L 548.36 565.58 C 548.45 563.20 550.75 507.04 575.19 492.74 C 583.26 488.02 592.83 488.44 603.63 494.01 C 645.36 515.49 666.04 542.26 665.11 573.59 Z" fill="#5a78ec" fill-opacity="0.54" fill-rule="nonzero" group-id="2,21" node-id="292" stroke="none" target-height="85.57004" target-width="117.67999" target-x="548.36" target-y="488.02"></path></g><g clip-path="url(#XMLID_3_)" group-id="2,22" node-id="295"><path d="M 467.85 573.66 L 466.24 572.47 C 586.17 410.20 626.99 427.77 656.80 440.60 C 661.24 442.51 665.43 444.31 669.58 445.37 C 701.96 453.61 708.46 565.33 708.72 570.08 L 706.72 570.19 C 706.66 569.04 700.05 455.19 669.08 447.31 C 664.79 446.21 660.52 444.38 656.01 442.44 C 626.82 429.87 586.83 412.67 467.85 573.66 Z" fill="#5a78ec" fill-opacity="0.54" fill-rule="nonzero" group-id="2,22" node-id="297" stroke="none" target-height="163.45996" target-width="242.47998" target-x="466.24" target-y="410.2"></path></g><g clip-path="url(#XMLID_3_)" group-id="2,23" node-id="300"><path d="M 335.09 393.67 C 334.40 393.67 333.73 393.56 333.07 393.35 C 324.59 390.63 320.88 369.55 322.06 330.71 C 322.92 302.10 326.19 273.89 326.22 273.61 L 328.21 273.84 C 324.58 304.90 318.49 386.57 333.68 391.45 C 337.71 392.74 345.57 388.76 360.11 362.48 C 369.88 344.81 378.50 328.20 386.83 312.14 C 414.71 258.42 434.86 219.61 461.64 212.84 C 472.94 209.99 484.93 213.03 498.31 222.12 L 497.18 223.77 C 484.30 215.02 472.84 212.08 462.13 214.78 C 436.22 221.33 416.25 259.81 388.61 313.06 C 380.27 329.13 371.64 345.75 361.86 363.45 C 350.64 383.73 341.85 393.67 335.09 393.67 Z" fill="#5a78ec" fill-opacity="0.54" fill-rule="nonzero" group-id="2,23" node-id="302" stroke="none" target-height="183.68001" target-width="179.82" target-x="318.49" target-y="209.99"></path></g><path d="M 722.13 311.39 L 519.22 311.39 L 316.30 311.39 L 185.56 279.90 L 185.56 611.43 L 321.98 560.76 L 519.22 560.76 L 716.45 560.76 L 852.87 611.43 L 852.87 279.90 Z" fill="none" id="XMLID_105_" node-id="29" stroke="#232323" stroke-linecap="round" stroke-width="2" target-height="331.53" target-width="667.31" target-x="185.56" target-y="279.9"></path><path d="M 620.35 514.83 L 478.37 514.83 C 476.52 514.83 475.00 513.31 475.00 511.46 L 475.00 320.42 C 475.00 318.57 476.52 317.05 478.37 317.05 L 620.35 317.05 C 622.20 317.05 623.72 318.57 623.72 320.42 L 623.72 511.46 C 623.71 513.31 622.20 514.83 620.35 514.83 Z" fill="#5a78ec" fill-rule="nonzero" node-id="307" stroke="none" target-height="197.78003" target-width="148.71997" target-x="475" target-y="317.05"></path><path d="M 613.08 509.16 L 485.64 509.16 C 483.79 509.16 482.28 507.64 482.28 505.79 L 482.28 326.09 C 482.28 324.24 483.79 322.72 485.64 322.72 L 613.08 322.72 C 614.93 322.72 616.44 324.24 616.44 326.09 L 616.44 505.79 C 616.44 507.64 614.93 509.16 613.08 509.16 Z" fill="#ffffff" fill-rule="nonzero" group-id="3,24" node-id="313" stroke="none" target-height="186.44" target-width="134.16" target-x="482.28" target-y="322.72"></path><g clip-path="url(#XMLID_4_)" group-id="3,25" node-id="316"><path d="M 545.20 507.97 C 545.20 542.68 517.06 570.82 482.35 570.82 C 447.64 570.82 419.50 542.68 419.50 507.97 C 419.50 473.26 447.64 445.12 482.35 445.12 C 517.06 445.12 545.20 473.26 545.20 507.97 Z" fill="#ff6666" fill-rule="nonzero" group-id="3,25" node-id="318" stroke="none" target-height="125.70001" target-width="125.70001" target-x="419.5" target-y="445.12"></path></g><g clip-path="url(#XMLID_5_)" group-id="4,26" node-id="324"><path d="M 616.43 438.97 C 616.43 477.73 585.00 509.16 546.24 509.16 C 507.47 509.16 476.05 477.73 476.05 438.97 C 476.05 400.20 507.47 368.78 546.24 368.78 C 585.00 368.78 616.43 400.20 616.43 438.97 Z" fill="none" group-id="4,26" node-id="326" stroke="#ff6666" stroke-linecap="butt" stroke-width="1" target-height="140.38" target-width="140.38" target-x="476.05" target-y="368.78"></path></g><path d="M 613.08 509.16 L 545.24 509.16 L 545.24 440.70 L 616.44 440.70 L 616.44 505.79 C 616.44 507.64 614.93 509.16 613.08 509.16 Z" fill="none" group-id="4,27" node-id="331" stroke="#ff6666" stroke-linecap="butt" stroke-width="1" target-height="68.45999" target-width="71.20001" target-x="545.24" target-y="440.7"></path><path d="M 676.84 410.68 C 676.84 419.19 669.94 426.09 661.43 426.09 C 652.92 426.09 646.02 419.19 646.02 410.68 C 646.02 402.17 652.92 395.27 661.43 395.27 C 669.94 395.27 676.84 402.17 676.84 410.68 Z" fill="#ffb7b7" fill-rule="nonzero" group-id="5" node-id="337" stroke="none" target-height="30.820007" target-width="30.820007" target-x="646.02" target-y="395.27"></path><path d="M 669.33 393.49 C 669.33 396.76 666.68 399.41 663.41 399.41 C 660.14 399.41 657.49 396.76 657.49 393.49 C 657.49 390.22 660.14 387.57 663.41 387.57 C 666.68 387.57 669.33 390.22 669.33 393.49 Z" fill="#26205c" fill-rule="nonzero" group-id="5" node-id="339" stroke="none" target-height="11.839996" target-width="11.840027" target-x="657.49" target-y="387.57"></path><path d="M 677.69 379.78 C 677.69 386.14 672.53 391.29 666.17 391.29 C 659.81 391.29 654.66 386.14 654.66 379.78 C 654.66 373.42 659.81 368.26 666.17 368.26 C 672.53 368.26 677.69 373.42 677.69 379.78 Z" fill="#26205c" fill-rule="nonzero" group-id="5" node-id="341" stroke="none" target-height="23.029999" target-width="23.03003" target-x="654.66" target-y="368.26"></path><path d="M 661.43 400.45 C 661.43 400.45 659.70 409.72 646.02 409.91 L 644.95 409.91 C 644.95 409.91 644.31 394.25 661.88 393.66 C 661.88 393.66 676.47 393.95 677.69 409.91 L 676.84 409.91 C 676.84 409.91 663.29 410.01 661.43 400.45 Z" fill="#26205c" fill-rule="nonzero" group-id="5" node-id="343" stroke="none" target-height="16.350006" target-width="33.380005" target-x="644.31" target-y="393.66"></path><path d="M 600.84 444.15 L 596.45 439.76 C 596.45 439.76 596.42 439.29 596.42 439.11 L 596.42 434.49 C 596.42 433.67 595.75 433.00 594.94 433.00 C 594.12 433.00 593.45 433.67 593.45 434.49 L 593.45 436.76 L 589.13 432.43 C 586.80 430.11 583.00 430.11 580.68 432.43 L 580.68 432.43 C 578.35 434.76 578.35 438.56 580.68 440.88 L 592.10 452.30 C 593.16 453.36 594.89 453.36 595.95 452.30 L 600.84 447.41 C 601.74 446.51 601.74 445.04 600.84 444.15 Z" fill="#ffb7b7" fill-rule="nonzero" group-id="5" node-id="345" stroke="none" target-height="23.25" target-width="23.390015" target-x="578.35" target-y="430.11"></path><path d="M 693.23 437.44 C 692.26 437.05 691.20 436.83 690.09 436.85 L 674.98 437.08 L 673.86 434.58 C 673.20 433.14 671.74 432.23 670.15 432.30 L 656.92 432.88 C 655.52 432.94 654.27 433.76 653.66 435.01 L 652.11 438.18 L 637.28 438.18 C 635.99 438.18 634.79 438.54 633.77 439.14 C 631.54 440.08 629.69 441.92 628.84 444.37 L 622.00 464.12 L 602.66 443.20 C 602.08 442.57 601.10 442.54 600.47 443.11 L 589.76 453.01 C 589.14 453.59 589.10 454.56 589.67 455.18 L 618.72 486.61 C 619.49 487.44 620.38 488.08 621.35 488.54 C 621.77 488.77 622.21 488.98 622.68 489.15 C 627.27 490.74 632.33 488.28 633.92 483.69 L 635.72 478.51 L 638.55 495.76 L 681.45 492.69 C 681.45 492.69 701.01 496.41 701.01 491.03 L 701.01 447.01 C 701.01 442.32 697.66 438.37 693.23 437.44 Z" fill="#a9d4ca" fill-rule="nonzero" group-id="5,28,34" node-id="351" stroke="none" target-height="64.17999" target-width="111.910034" target-x="589.1" target-y="432.23"></path><g clip-path="url(#SVGID_1_)" group-id="5,28,35" node-id="354"><path d="M 635.19 458.24 L 635.86 488.03 L 634.54 473.29 Z" fill="#94beb3" fill-rule="nonzero" group-id="5,28,35" node-id="356" stroke="none" target-height="29.790009" target-width="1.3200073" target-x="634.54" target-y="458.24"></path></g><g clip-path="url(#SVGID_1_)" group-id="5,28,36" node-id="359"><path d="M 676.84 494.81 L 679.81 450.80 L 679.81 497.65 Z" fill="#94beb3" fill-rule="nonzero" group-id="5,28,36" node-id="361" stroke="none" target-height="46.850006" target-width="2.9699707" target-x="676.84" target-y="450.8"></path></g><path d="M 654.66 670.71 L 632.28 670.71 C 632.28 670.71 633.77 684.79 619.15 686.29 C 619.15 686.29 601.25 687.78 603.34 699.61 L 654.66 699.61 L 654.66 670.71 Z" fill="#26205c" fill-rule="nonzero" group-id="5,29,37" node-id="369" stroke="none" target-height="28.899963" target-width="53.409973" target-x="601.25" target-y="670.71"></path><g clip-path="url(#XMLID_7_)" group-id="5,29,38" node-id="372"><path d="M 668.98 697.12 L 589.32 697.12 L 589.32 695.54 L 668.98 695.54 Z" fill="#ffffff" fill-rule="nonzero" group-id="5,29,38" node-id="374" stroke="#ffffff" stroke-linecap="butt" stroke-width="1" target-height="1.5800171" target-width="79.65997" target-x="589.32" target-y="695.54"></path></g><path d="M 654.66 670.71 L 632.28 670.71 C 632.28 670.71 633.77 684.79 619.15 686.29 C 619.15 686.29 601.25 687.78 603.34 699.61 L 654.66 699.61 L 654.66 670.71 Z" fill="none" group-id="5,29,39" node-id="379" stroke="#ffffff" stroke-linecap="butt" stroke-width="1" target-height="28.899963" target-width="53.409973" target-x="601.25" target-y="670.71"></path><path d="M 638.55 495.76 L 623.71 663.29 L 661.43 663.29 L 665.81 516.43 L 676.84 663.29 L 712.84 663.29 L 690.92 491.03 Z" fill="#8ea594" fill-rule="nonzero" group-id="5,30,40" node-id="387" stroke="none" target-height="172.25998" target-width="89.130005" target-x="623.71" target-y="491.03"></path><g clip-path="url(#SVGID_2_)" group-id="5,30,41" node-id="390"><path d="M 633.85 499.55 L 718.36 491.03 L 718.36 479.67 L 628.92 495.29 Z" fill="#7e9a84" fill-rule="nonzero" group-id="5,30,41" node-id="392" stroke="none" target-height="19.879974" target-width="89.44" target-x="628.92" target-y="479.67"></path></g><path d="M 628.92 658.14 C 628.89 658.14 628.87 658.14 628.84 658.14 C 628.29 658.09 627.88 657.61 627.92 657.06 L 639.60 505.62 C 639.63 505.19 639.93 504.83 640.35 504.73 C 648.30 502.74 648.87 498.22 648.89 498.03 C 648.95 497.49 649.45 497.09 649.98 497.14 C 650.53 497.19 650.93 497.67 650.88 498.21 C 650.86 498.45 650.28 504.02 641.54 506.48 L 629.91 657.22 C 629.87 657.74 629.43 658.14 628.92 658.14 Z" fill="#ffffff" fill-rule="nonzero" group-id="5" node-id="396" stroke="none" target-height="161.05002" target-width="23.049988" target-x="627.88" target-y="497.09"></path><path d="M 707.72 658.14 C 707.22 658.14 706.79 657.78 706.73 657.28 L 687.32 516.56 C 687.25 516.02 687.63 515.51 688.18 515.44 C 688.74 515.35 689.23 515.74 689.30 516.29 L 708.71 657.00 C 708.78 657.55 708.40 658.05 707.85 658.13 C 707.81 658.14 707.76 658.14 707.72 658.14 Z" fill="#ffffff" fill-rule="nonzero" group-id="5" node-id="398" stroke="none" target-height="142.79004" target-width="21.53003" target-x="687.25" target-y="515.35"></path><path d="M 718.36 500.94 L 664.35 487.83 L 658.27 520.96 L 713.62 534.68 Z" fill="#ffb000" fill-rule="nonzero" group-id="5" node-id="400" stroke="none" target-height="46.850006" target-width="60.089966" target-x="658.27" target-y="487.83"></path><path d="M 694.47 506.96 L 687.84 506.96 C 685.98 506.96 684.45 508.49 684.45 510.35 L 684.45 517.47 L 681.17 523.15 C 680.78 523.83 681.01 524.70 681.69 525.09 L 681.69 525.09 C 682.36 525.48 683.24 525.25 683.63 524.57 L 684.45 523.15 L 684.45 527.15 C 684.45 530.88 687.50 533.94 691.23 533.94 C 694.96 533.94 698.01 530.88 698.01 527.15 L 698.01 510.51 C 698.01 508.56 696.42 506.96 694.47 506.96 Z" fill="#ffb7b7" fill-rule="nonzero" group-id="5" node-id="402" stroke="none" target-height="26.980011" target-width="17.22998" target-x="680.78" target-y="506.96"></path><path d="M 699.49 516.43 L 681.42 516.43 C 680.53 516.43 679.81 515.70 679.81 514.82 L 679.81 447.65 C 679.81 441.82 684.58 437.05 690.41 437.05 L 690.41 437.05 C 696.24 437.05 701.01 441.82 701.01 447.65 L 701.01 514.91 C 701.01 515.74 700.33 516.43 699.49 516.43 Z" fill="#a9d4ca" fill-rule="nonzero" group-id="5" node-id="404" stroke="none" target-height="79.380005" target-width="21.200012" target-x="679.81" target-y="437.05"></path><path d="M 634.80 663.29 L 633.85 670.71 L 653.88 670.71 L 654.00 663.29 Z" fill="#ffb7b7" fill-rule="nonzero" group-id="5" node-id="406" stroke="none" target-height="7.420044" target-width="20.150024" target-x="633.85" target-y="663.29"></path><path d="M 682.68 670.71 L 705.06 670.71 C 705.06 670.71 703.57 684.79 718.19 686.29 C 718.19 686.29 736.09 687.78 734.00 699.61 L 682.68 699.61 L 682.68 670.71 Z" fill="#26205c" fill-rule="nonzero" group-id="5,31,42" node-id="412" stroke="none" target-height="28.899963" target-width="53.410034" target-x="682.68" target-y="670.71"></path><g clip-path="url(#XMLID_8_)" group-id="5,31,43" node-id="415"><path d="M 668.37 695.54 L 748.02 695.54 L 748.02 697.12 L 668.37 697.12 Z" fill="#ffffff" fill-rule="nonzero" group-id="5,31,43" node-id="417" stroke="#ffffff" stroke-linecap="butt" stroke-width="1" target-height="1.5800171" target-width="79.650024" target-x="668.37" target-y="695.54"></path></g><path d="M 682.68 670.71 L 705.06 670.71 C 705.06 670.71 703.57 684.79 718.19 686.29 C 718.19 686.29 736.09 687.78 734.00 699.61 L 682.68 699.61 L 682.68 670.71 Z" fill="none" group-id="5,31,44" node-id="422" stroke="#ffffff" stroke-linecap="butt" stroke-width="1" target-height="28.899963" target-width="53.410034" target-x="682.68" target-y="670.71"></path><path d="M 702.55 663.29 L 703.49 670.71 L 683.46 670.71 L 683.34 663.29 Z" fill="#ffb7b7" fill-rule="nonzero" group-id="5" node-id="426" stroke="none" target-height="7.420044" target-width="20.149963" target-x="683.34" target-y="663.29"></path><path d="M 649.89 441.86 C 649.34 441.86 648.90 441.43 648.89 440.88 C 648.88 440.33 649.32 439.87 649.87 439.86 L 677.23 439.33 C 677.24 439.33 677.24 439.33 677.25 439.33 C 677.79 439.33 678.24 439.76 678.25 440.31 C 678.26 440.86 677.82 441.32 677.27 441.33 L 649.91 441.86 C 649.90 441.86 649.89 441.86 649.89 441.86 Z" fill="#26205c" fill-rule="nonzero" group-id="5" node-id="428" stroke="none" target-height="2.5299988" target-width="29.380005" target-x="648.88" target-y="439.33"></path><path d="M 819.94 653.74 C 819.67 653.12 794.14 591.03 823.92 545.57 L 824.76 546.12 C 795.27 591.14 820.60 652.73 820.86 653.35 L 819.94 653.74 Z" fill="#5a6c1c" fill-rule="nonzero" group-id="6" node-id="432" stroke="none" target-height="108.16998" target-width="30.619995" target-x="794.14" target-y="545.57"></path><path d="M 826.32 653.54 C 825.24 648.32 824.37 643.06 823.58 637.79 C 822.80 632.52 822.15 627.23 821.58 621.92 C 821.10 616.62 820.63 611.30 820.43 605.97 C 820.25 600.64 820.20 595.30 820.60 589.98 L 820.64 593.97 C 820.65 595.30 820.74 596.63 820.78 597.96 C 820.81 599.29 820.88 600.62 820.96 601.95 C 821.04 603.27 821.09 604.60 821.20 605.93 C 821.55 611.23 822.02 616.53 822.58 621.82 C 823.06 627.12 823.72 632.40 824.34 637.69 C 824.64 640.33 824.97 642.97 825.32 645.61 L 826.32 653.54 Z" fill="#5a6c1c" fill-rule="nonzero" group-id="6" node-id="434" stroke="none" target-height="63.559998" target-width="6.119995" target-x="820.2" target-y="589.98"></path><path d="M 820.30 573.56 C 820.27 573.56 820.23 573.56 820.20 573.55 C 819.93 573.49 819.76 573.23 819.81 572.96 C 819.84 572.82 822.56 559.34 810.84 542.77 C 810.68 542.55 810.73 542.24 810.96 542.08 C 811.18 541.92 811.49 541.97 811.65 542.20 C 823.64 559.14 820.82 573.03 820.79 573.17 C 820.74 573.40 820.53 573.56 820.30 573.56 Z" fill="#5a6c1c" fill-rule="nonzero" group-id="6" node-id="436" stroke="none" target-height="31.640015" target-width="12.960022" target-x="810.68" target-y="541.92"></path><path d="M 837.60 656.72 C 837.59 656.62 837.00 646.02 831.70 641.29 C 825.86 636.07 818.04 600.16 820.99 586.37 L 821.97 586.58 C 819.12 599.87 826.86 635.63 832.37 640.54 C 837.98 645.56 838.57 656.22 838.60 656.67 L 837.60 656.72 Z" fill="#5a6c1c" fill-rule="nonzero" group-id="6" node-id="438" stroke="none" target-height="70.349976" target-width="20.559998" target-x="818.04" target-y="586.37"></path><path d="M 778.58 615.28 C 778.58 615.28 788.44 613.11 796.92 594.17 C 796.92 594.17 802.25 591.01 807.58 604.72 C 807.58 604.72 809.80 604.23 809.06 599.69 C 808.32 595.16 827.11 596.19 830.80 602.26 C 830.80 602.26 809.80 617.50 792.78 619.57 C 792.78 619.57 775.92 618.97 778.58 615.28 Z" fill="#aabb41" fill-rule="nonzero" group-id="6" node-id="440" stroke="none" target-height="28.559998" target-width="54.880005" target-x="775.92" target-y="591.01"></path><path d="M 841.90 623.17 C 841.90 623.17 843.97 614.49 830.80 614.09 C 817.64 613.70 813.20 617.64 795.64 619.10 C 795.64 619.10 815.35 611.71 820.71 603.55 C 821.59 602.21 822.77 601.09 824.18 600.34 C 826.73 598.98 830.74 598.28 835.59 602.45 C 835.59 602.45 843.87 606.79 841.90 623.17 Z" fill="#6f8037" fill-rule="nonzero" group-id="6" node-id="442" stroke="none" target-height="24.889954" target-width="48.329956" target-x="795.64" target-y="598.28"></path><path d="M 834.01 653.54 C 834.80 652.36 835.51 651.12 836.14 649.85 C 836.77 648.58 837.38 647.30 837.88 645.98 C 838.91 643.34 839.76 640.65 840.39 637.89 C 840.55 637.20 840.67 636.51 840.81 635.82 C 840.97 635.13 841.08 634.43 841.17 633.73 L 841.48 631.63 C 841.53 630.92 841.60 630.22 841.68 629.51 C 841.96 626.69 841.95 623.85 841.96 620.99 C 842.14 622.40 842.31 623.83 842.41 625.26 C 842.43 626.69 842.54 628.13 842.45 629.56 C 842.41 632.44 841.94 635.29 841.36 638.11 C 840.70 640.92 839.80 643.67 838.58 646.28 C 837.37 648.88 835.92 651.40 834.01 653.54 Z" fill="#5a6c1c" fill-rule="nonzero" group-id="6" node-id="444" stroke="none" target-height="32.549988" target-width="8.529968" target-x="834.01" target-y="620.99"></path><path d="M 853.14 573.56 C 853.14 573.56 860.39 578.79 869.71 576.21 C 879.03 573.63 878.54 581.79 874.77 582.68 C 870.99 583.57 869.77 583.26 865.50 582.95 C 857.96 582.40 853.14 573.56 853.14 573.56 Z" fill="#6f8037" fill-rule="nonzero" group-id="6" node-id="446" stroke="none" target-height="10.01001" target-width="25.890015" target-x="853.14" target-y="573.56"></path><path d="M 870.21 583.30 C 870.21 583.30 850.33 581.69 843.08 582.28 C 835.83 582.88 821.78 583.06 820.56 591.05 C 820.56 591.05 810.68 586.95 821.63 569.27 C 821.63 569.27 830.80 554.99 843.90 564.83 L 843.75 573.06 L 847.74 566.97 C 847.74 566.97 857.95 579.87 868.38 582.83 L 870.21 583.30 Z" fill="#aabb41" fill-rule="nonzero" group-id="6" node-id="448" stroke="none" target-height="36.059998" target-width="59.53003" target-x="810.68" target-y="554.99"></path><path d="M 880.29 528.95 C 880.29 528.95 879.41 519.68 869.42 517.88 C 859.43 516.08 857.88 524.88 857.88 524.88 C 857.88 524.88 867.49 519.19 880.29 528.95 Z" fill="#6f8037" fill-rule="nonzero" group-id="6" node-id="450" stroke="none" target-height="12.869995" target-width="22.409973" target-x="857.88" target-y="516.08"></path><path d="M 823.41 547.31 C 823.41 547.31 819.86 503.65 851.51 517.56 C 851.51 517.56 858.20 517.12 870.21 517.93 C 870.21 517.93 857.65 519.41 859.13 525.85 C 860.61 532.28 836.79 548.14 823.41 547.31 Z" fill="#aabb41" fill-rule="nonzero" group-id="6" node-id="452" stroke="none" target-height="44.49002" target-width="50.350037" target-x="819.86" target-y="503.65"></path><path d="M 824.34 546.53 C 825.37 543.24 826.81 540.08 828.45 537.04 C 830.10 534.00 832.02 531.10 834.25 528.42 C 836.48 525.76 839.02 523.33 841.92 521.40 C 843.39 520.45 844.92 519.62 846.52 518.94 C 848.14 518.32 849.81 517.82 851.51 517.56 C 848.19 518.48 845.11 520.02 842.36 522.03 C 839.63 524.06 837.18 526.44 835.01 529.06 C 832.82 531.67 830.90 534.50 829.11 537.42 C 828.22 538.88 827.39 540.38 826.60 541.90 C 825.79 543.41 825.05 544.96 824.34 546.53 Z" fill="#5a6c1c" fill-rule="nonzero" group-id="6" node-id="454" stroke="none" target-height="28.970032" target-width="27.169983" target-x="824.34" target-y="517.56"></path><path d="M 762.87 575.61 C 762.87 575.61 752.10 557.58 758.46 541.75 C 758.46 541.75 762.36 547.49 765.71 547.34 C 765.71 547.34 763.49 542.93 763.79 539.97 C 763.79 539.97 772.37 537.75 780.50 538.64 L 762.87 575.61 Z" fill="#aabb41" fill-rule="nonzero" group-id="6" node-id="456" stroke="none" target-height="37.859985" target-width="28.400024" target-x="752.1" target-y="537.75"></path><path d="M 763.29 578.00 C 763.29 578.00 756.09 550.28 785.88 529.96 L 788.64 539.53 L 791.70 531.08 C 791.70 531.08 805.05 528.64 811.52 543.08 C 811.52 543.08 781.74 535.68 763.29 578.00 Z" fill="#6f8037" fill-rule="nonzero" group-id="6" node-id="458" stroke="none" target-height="49.359985" target-width="55.429993" target-x="756.09" target-y="528.64"></path><path d="M 805.21 651.37 L 853.14 651.37 L 838.35 695.75 L 820.00 695.75 Z" fill="#3f2700" fill-rule="nonzero" group-id="6" node-id="460" stroke="#ffffff" stroke-linecap="butt" stroke-width="1" target-height="44.380005" target-width="47.929993" target-x="805.21" target-y="651.37"></path><path d="M 198.37 294.57 L 198.37 502.23 L 286.29 478.82 L 286.29 313.77 Z" fill="#ffffff" fill-rule="nonzero" node-id="463" stroke="none" target-height="207.66" target-width="87.92001" target-x="198.37" target-y="294.57"></path><path d="M 208.22 311.50 L 208.22 335.75 L 277.95 347.88 L 277.95 324.70 Z" fill="#5a78ec" fill-rule="nonzero" node-id="465" stroke="none" target-height="36.380005" target-width="69.73001" target-x="208.22" target-y="311.5"></path><path d="M 212.01 358.46 L 212.01 382.71 L 281.74 392.82 L 281.74 369.32 Z" fill="#5a78ec" fill-opacity="0.28" fill-rule="nonzero" group-id="7" node-id="469" stroke="none" target-height="34.360016" target-width="69.729996" target-x="212.01" target-y="358.46"></path><path d="M 224.52 352.42 L 224.52 376.68 L 294.25 386.78 L 294.25 363.29 Z" fill="#5a78ec" fill-rule="nonzero" node-id="472" stroke="none" target-height="34.359985" target-width="69.729996" target-x="224.52" target-y="352.42"></path><path d="M 208.22 395.37 L 208.22 429.85 L 240.81 427.58 L 240.81 398.40 Z" fill="#ff6666" fill-rule="nonzero" node-id="474" stroke="none" target-height="34.48001" target-width="32.589996" target-x="208.22" target-y="395.37"></path><path d="M 208.22 438.95 L 208.22 475.71 L 240.81 468.51 L 240.81 436.80 Z" fill="#fdd740" fill-rule="nonzero" node-id="476" stroke="none" target-height="38.910004" target-width="32.589996" target-x="208.22" target-y="436.8"></path><path d="M 215.43 520.42 L 215.43 546.19 L 248.39 535.58 L 248.39 510.57 Z" fill="#5a78ec" fill-rule="nonzero" node-id="478" stroke="none" target-height="35.619995" target-width="32.960007" target-x="215.43" target-y="510.57"></path><path d="M 269.80 506.40 L 269.80 532.17 L 302.77 521.56 L 302.77 496.55 Z" fill="#ff6666" fill-rule="nonzero" node-id="480" stroke="none" target-height="35.619995" target-width="32.97" target-x="269.8" target-y="496.55"></path><path d="M 787.03 395.61 C 787.03 398.66 784.55 401.14 781.49 401.14 C 778.44 401.14 775.96 398.66 775.96 395.61 C 775.96 392.55 778.44 390.08 781.49 390.08 C 784.55 390.08 787.03 392.55 787.03 395.61 Z" fill="none" node-id="482" stroke="#ffffff" stroke-linecap="butt" stroke-width="1" target-height="11.060028" target-width="11.070007" target-x="775.96" target-y="390.08"></path><path d="M 393.51 360.55 C 393.51 360.55 373.24 352.22 354.14 370.85 L 376.91 390.15 L 393.51 360.55 Z" fill="#6262b6" fill-opacity="0.33" fill-rule="nonzero" group-id="8" node-id="485" stroke="none" target-height="37.929993" target-width="39.369995" target-x="354.14" target-y="352.22"></path><path d="M 424.85 388.25 C 424.85 388.25 436.21 406.99 420.75 428.73 L 398.16 409.21 L 424.85 388.25 Z" fill="#6262b6" fill-opacity="0.33" fill-rule="nonzero" group-id="8" node-id="487" stroke="none" target-height="40.48001" target-width="38.049988" target-x="398.16" target-y="388.25"></path><path d="M 419.98 400.41 C 402.97 418.03 394.12 416.89 394.12 416.89 L 369.01 393.51 C 369.01 393.51 369.61 382.05 384.73 366.38 C 400.91 349.62 421.92 343.64 431.65 353.04 C 441.39 362.43 436.16 383.64 419.98 400.41 Z" fill="#6262b6" fill-opacity="0.33" fill-rule="nonzero" group-id="8,32,45" node-id="493" stroke="none" target-height="74.389984" target-width="72.380005" target-x="369.01" target-y="343.64"></path><g clip-path="url(#SVGID_3_)" group-id="8,32,46" node-id="496"><path d="M 377.29 340.25 L 445.39 405.50 L 452.19 341.38 L 404.23 326.75 Z" fill="#6262b6" fill-opacity="0.33" fill-rule="nonzero" group-id="8,32,46" node-id="498" stroke="none" target-height="78.75" target-width="74.899994" target-x="377.29" target-y="326.75"></path></g><path d="M 410.52 386.74 C 410.52 392.19 406.10 396.61 400.65 396.61 C 395.20 396.61 390.79 392.19 390.79 386.74 C 390.79 381.29 395.20 376.88 400.65 376.88 C 406.10 376.88 410.52 381.29 410.52 386.74 Z" fill="#6262b6" fill-opacity="0.33" fill-rule="nonzero" group-id="8" node-id="502" stroke="none" target-height="19.72998" target-width="19.72998" target-x="390.79" target-y="376.88"></path><path d="M 380.46 441.41 C 395.42 424.98 377.93 411.87 377.93 411.87 C 377.93 411.87 364.00 395.03 348.30 410.75 C 348.30 410.75 344.71 413.76 341.93 419.67 C 341.93 419.67 340.88 421.52 357.20 416.38 C 357.20 416.38 342.91 429.88 348.69 442.54 C 361.61 447.71 374.40 432.79 374.40 432.79 C 370.05 449.34 371.85 448.20 371.85 448.20 C 377.62 445.13 380.46 441.41 380.46 441.41 Z" fill="#6262b6" fill-opacity="0.33" fill-rule="nonzero" group-id="8" node-id="504" stroke="none" target-height="54.309998" target-width="54.54001" target-x="340.88" target-y="395.03"></path><path d="M 373.77 421.79 C 373.77 424.80 371.34 427.23 368.33 427.23 C 365.32 427.23 362.89 424.80 362.89 421.79 C 362.89 418.78 365.32 416.35 368.33 416.35 C 371.34 416.35 373.77 418.78 373.77 421.79 Z" fill="#6262b6" fill-opacity="0.33" fill-rule="nonzero" group-id="8" node-id="506" stroke="none" target-height="10.880005" target-width="10.879974" target-x="362.89" target-y="416.35"></path><path d="M 390.27 353.44 C 390.27 353.44 370.01 345.11 350.91 363.74 L 373.68 383.05 L 390.27 353.44 Z" fill="#2b4bb1" fill-rule="nonzero" group-id="9" node-id="510" stroke="none" target-height="37.940002" target-width="39.359985" target-x="350.91" target-y="345.11"></path><path d="M 421.62 381.14 C 421.62 381.14 432.98 399.88 417.51 421.62 L 394.93 402.11 L 421.62 381.14 Z" fill="#2b4bb1" fill-rule="nonzero" group-id="9" node-id="512" stroke="none" target-height="40.47998" target-width="38.05002" target-x="394.93" target-y="381.14"></path><path d="M 416.75 393.30 C 399.74 410.93 390.88 409.78 390.88 409.78 L 365.78 386.40 C 365.78 386.40 366.37 374.94 381.50 359.28 C 397.68 342.51 418.69 336.54 428.42 345.93 C 438.16 355.33 432.93 376.54 416.75 393.30 Z" fill="#5a78eb" fill-rule="nonzero" group-id="9,33,47" node-id="518" stroke="none" target-height="74.389984" target-width="72.380005" target-x="365.78" target-y="336.54"></path><g clip-path="url(#SVGID_4_)" group-id="9,33,48" node-id="521"><path d="M 374.06 333.15 L 442.15 398.40 L 448.95 334.27 L 401.00 319.64 Z" fill="#ff6666" fill-rule="nonzero" group-id="9,33,48" node-id="523" stroke="none" target-height="78.75998" target-width="74.890015" target-x="374.06" target-y="319.64"></path></g><path d="M 407.29 379.64 C 407.29 385.09 402.87 389.50 397.42 389.50 C 391.97 389.50 387.55 385.09 387.55 379.64 C 387.55 374.19 391.97 369.77 397.42 369.77 C 402.87 369.77 407.29 374.19 407.29 379.64 Z" fill="#ffffff" fill-rule="nonzero" group-id="9" node-id="527" stroke="none" target-height="19.730011" target-width="19.74002" target-x="387.55" target-y="369.77"></path><path d="M 377.23 434.31 C 392.18 417.87 374.69 404.76 374.69 404.76 C 374.69 404.76 360.77 387.92 345.06 403.64 C 345.06 403.64 341.48 406.65 338.70 412.57 C 338.70 412.57 337.65 414.42 353.97 409.28 C 353.97 409.28 339.67 422.78 345.46 435.43 C 358.37 440.60 371.17 425.68 371.17 425.68 C 366.82 442.23 368.62 441.09 368.62 441.09 C 374.39 438.03 377.23 434.31 377.23 434.31 Z" fill="#fdd740" fill-rule="nonzero" group-id="9" node-id="529" stroke="none" target-height="54.309998" target-width="54.53" target-x="337.65" target-y="387.92"></path><path d="M 370.54 414.68 C 370.54 417.69 368.10 420.13 365.10 420.13 C 362.09 420.13 359.65 417.69 359.65 414.68 C 359.65 411.68 362.09 409.24 365.10 409.24 C 368.10 409.24 370.54 411.68 370.54 414.68 Z" fill="#fb6e42" fill-rule="nonzero" group-id="9" node-id="531" stroke="none" target-height="10.890015" target-width="10.890015" target-x="359.65" target-y="409.24"></path><path d="M 492.18 337.77 L 528.56 337.77 L 528.56 370.61 L 492.18 370.61 Z" fill="#5a78ec" fill-rule="nonzero" node-id="534" stroke="none" target-height="32.839996" target-width="36.380005" target-x="492.18" target-y="337.77"></path><path d="M 492.18 391.30 L 503.30 414.68 L 541.70 414.68 L 528.56 391.30 Z" fill="#5a78ec" fill-rule="nonzero" node-id="536" stroke="none" target-height="23.380005" target-width="49.52002" target-x="492.18" target-y="391.3"></path><path d="M 535.13 337.77 C 535.13 337.77 532.92 351.67 538.48 357.48 C 544.03 363.29 544.22 372.08 544.22 375.64 L 576.56 375.64 C 576.56 375.64 577.51 362.59 567.47 354.19 C 560.47 348.34 563.30 337.77 563.30 337.77 L 535.13 337.77 Z" fill="#5a78ec" fill-rule="nonzero" node-id="538" stroke="none" target-height="37.870026" target-width="44.590027" target-x="532.92" target-y="337.77"></path><path d="M 793.83 275.73 C 796.83 278.73 807.83 295.73 794.83 321.73 C 794.83 321.73 776.49 357.49 738.05 342.08 C 732.36 339.80 726.83 334.73 724.83 332.73 C 722.83 330.73 722.43 328.93 721.83 327.73 L 758.83 331.73 L 786.83 308.73 C 786.83 308.73 791.59 273.49 793.83 275.73 Z" fill="#1c1b1b" fill-rule="nonzero" group-id="10" node-id="541" stroke="none" target-height="84" target-width="86" target-x="721.83" target-y="273.49"></path><path d="M 717.83 322.73 L 735.83 307.73 C 735.83 307.73 730.33 298.23 737.33 286.23 L 727.83 277.73 L 713.83 313.73 C 713.83 313.73 716.83 322.73 717.83 322.73 Z" fill="#1c1b1b" fill-rule="nonzero" group-id="10" node-id="543" stroke="none" target-height="45" target-width="23.5" target-x="713.83" target-y="277.73"></path><path d="M 727.83 264.73 L 725.83 268.73 L 740.83 281.73 C 740.83 281.73 754.83 267.73 772.83 282.73 L 789.83 269.73 L 783.83 264.73 L 727.83 264.73 Z" fill="#1c1b1b" fill-rule="nonzero" group-id="10" node-id="545" stroke="none" target-height="18" target-width="64" target-x="725.83" target-y="264.73"></path><path d="M 733.19 306.95 C 731.41 301.93 731.20 296.20 732.94 290.57 C 733.58 288.51 734.44 286.58 735.49 284.82 L 720.20 271.88 C 717.62 275.74 715.54 280.04 714.09 284.74 C 710.25 297.14 711.55 309.82 716.74 320.21 L 733.19 306.95 Z" fill="#ff6666" fill-rule="nonzero" group-id="10" node-id="547" stroke="none" target-height="48.329987" target-width="25.23999" target-x="710.25" target-y="271.88"></path><path d="M 768.82 253.31 C 753.24 248.49 736.80 253.61 725.59 265.19 L 741.15 278.16 C 747.08 273.21 755.00 271.22 762.56 273.56 C 766.10 274.66 769.16 276.58 771.64 279.08 L 788.06 266.19 C 783.11 260.26 776.58 255.71 768.82 253.31 Z" fill="#ffd840" fill-rule="nonzero" group-id="10" node-id="549" stroke="none" target-height="30.589981" target-width="62.46997" target-x="725.59" target-y="248.49"></path><path d="M 776.17 285.55 C 778.80 291.09 779.42 297.78 777.39 304.32 C 773.31 317.51 760.05 325.13 747.78 321.33 C 743.60 320.04 740.08 317.59 737.41 314.40 L 720.77 326.79 C 725.86 333.65 732.94 338.93 741.51 341.58 C 764.20 348.60 788.70 334.53 796.25 310.15 C 800.27 297.14 798.64 283.82 792.81 273.16 L 776.17 285.55 Z" fill="#5a78ec" fill-rule="nonzero" group-id="10" node-id="551" stroke="none" target-height="75.44" target-width="79.5" target-x="720.77" target-y="273.16"></path><path d="M 734.40 333.40 C 734.31 333.40 734.21 333.38 734.13 333.32 C 733.15 332.69 732.16 331.99 731.21 331.26 C 729.60 330.01 728.00 328.61 726.48 327.08 C 726.28 326.88 726.28 326.57 726.48 326.37 C 726.67 326.18 726.99 326.18 727.18 326.37 C 728.68 327.87 730.24 329.25 731.82 330.46 C 732.75 331.18 733.71 331.86 734.67 332.48 C 734.90 332.63 734.97 332.94 734.82 333.18 C 734.73 333.32 734.56 333.40 734.40 333.40 Z" fill="#ffffff" fill-rule="nonzero" group-id="10" node-id="553" stroke="none" target-height="7.220001" target-width="8.689941" target-x="726.28" target-y="326.18"></path><path d="M 753.56 339.16 C 749.61 339.16 745.49 338.53 741.54 337.06 C 741.28 336.97 741.15 336.68 741.25 336.42 C 741.34 336.16 741.63 336.03 741.89 336.12 C 752.30 339.99 763.93 337.89 770.05 333.81 C 770.28 333.65 770.59 333.72 770.75 333.95 C 770.90 334.18 770.84 334.49 770.61 334.64 C 766.61 337.31 760.34 339.16 753.56 339.16 Z" fill="#ffffff" fill-rule="nonzero" group-id="10" node-id="555" stroke="none" target-height="6.3399963" target-width="29.75" target-x="741.15" target-y="333.65"></path><path d="M 779.38 328.94 C 779.23 328.94 779.09 328.88 778.99 328.76 C 778.81 328.55 778.84 328.23 779.05 328.05 C 801.48 309.29 791.96 283.66 791.86 283.40 C 791.76 283.15 791.89 282.86 792.15 282.76 C 792.41 282.66 792.70 282.79 792.80 283.05 C 792.90 283.31 802.66 309.60 779.70 328.82 C 779.60 328.90 779.49 328.94 779.38 328.94 Z" fill="#ffffff" fill-rule="nonzero" group-id="10" node-id="557" stroke="none" target-height="46.28" target-width="23.849976" target-x="778.81" target-y="282.66"></path><path d="M 231.91 561.09 C 231.70 561.09 231.50 561.02 231.32 560.90 C 231.06 560.71 230.91 560.41 230.91 560.09 L 230.91 540.89 C 230.91 540.33 231.36 539.89 231.91 539.89 C 232.46 539.89 232.91 540.33 232.91 540.89 L 232.91 558.70 L 288.57 540.16 L 288.57 525.81 C 288.57 525.25 289.02 524.81 289.57 524.81 C 290.13 524.81 290.57 525.25 290.57 525.81 L 290.57 540.89 C 290.57 541.32 290.30 541.70 289.89 541.84 L 232.22 561.03 C 232.12 561.07 232.01 561.09 231.91 561.09 Z" fill="#6363c0" fill-rule="nonzero" node-id="560" stroke="none" target-height="36.28003" target-width="59.660004" target-x="230.91" target-y="524.81"></path><path d="M 289.57 541.89 C 289.15 541.89 288.77 541.62 288.63 541.21 C 288.45 540.68 288.73 540.11 289.25 539.94 L 311.17 532.55 C 311.26 532.52 311.35 532.50 311.44 532.50 L 340.24 531.21 L 340.24 502.23 C 340.24 501.68 340.68 501.23 341.24 501.23 L 475.00 501.23 C 475.56 501.23 476.00 501.68 476.00 502.23 C 476.00 502.79 475.56 503.23 475.00 503.23 L 342.24 503.23 L 342.24 532.17 C 342.24 532.70 341.81 533.14 341.28 533.17 L 311.67 534.49 L 289.89 541.83 C 289.79 541.87 289.68 541.89 289.57 541.89 Z" fill="#6363c0" fill-rule="nonzero" node-id="562" stroke="none" target-height="40.660004" target-width="187.54999" target-x="288.45" target-y="501.23"></path><path d="M 805.64 474.69 L 746.29 464.69 C 739.70 464.69 734.32 459.30 734.32 452.72 L 734.32 399.45 C 734.32 392.87 739.70 387.48 746.29 387.48 L 805.64 377.48 C 812.22 377.48 817.61 382.87 817.61 389.45 L 817.61 462.72 C 817.61 469.30 812.22 474.69 805.64 474.69 Z" fill="#5a78ec" fill-rule="nonzero" node-id="564" stroke="none" target-height="97.20999" target-width="83.28998" target-x="734.32" target-y="377.48"></path><path d="M 810.63 481.41 L 752.12 471.55 C 745.63 471.55 740.31 466.24 740.31 459.75 L 740.31 407.23 C 740.31 400.74 745.63 395.43 752.12 395.43 L 810.63 385.57 C 817.12 385.57 822.44 390.88 822.44 397.37 L 822.44 469.61 C 822.44 476.10 817.12 481.41 810.63 481.41 Z" fill="none" node-id="566" stroke="#232323" stroke-linecap="butt" stroke-width="1" target-height="95.84" target-width="82.130005" target-x="740.31" target-y="385.57"></path><path d="M 793.03 424.15 C 793.03 435.03 784.20 443.85 773.32 443.85 C 762.44 443.85 753.62 435.03 753.62 424.15 C 753.62 413.26 762.44 404.44 773.32 404.44 C 784.20 404.44 793.03 413.26 793.03 424.15 Z" fill="#ffffff" fill-rule="nonzero" node-id="568" stroke="none" target-height="39.410004" target-width="39.410034" target-x="753.62" target-y="404.44"></path><path d="M 804.24 396.94 C 804.24 400.12 801.65 402.71 798.47 402.71 C 795.28 402.71 792.70 400.12 792.70 396.94 C 792.70 393.75 795.28 391.16 798.47 391.16 C 801.65 391.16 804.24 393.75 804.24 396.94 Z" fill="none" node-id="570" stroke="#ffffff" stroke-linecap="butt" stroke-width="1" target-height="11.549988" target-width="11.539978" target-x="792.7" target-y="391.16"></path><path d="M 601.80 390.22 L 555.26 390.22 C 554.99 390.22 554.76 390.00 554.76 389.72 C 554.76 389.45 554.99 389.22 555.26 389.22 L 601.80 389.22 C 602.07 389.22 602.30 389.45 602.30 389.72 C 602.30 390.00 602.07 390.22 601.80 390.22 Z" fill="#232323" fill-rule="nonzero" node-id="572" stroke="none" target-height="1" target-width="47.539978" target-x="554.76" target-y="389.22"></path><path d="M 576.63 396.05 L 555.26 396.05 C 554.99 396.05 554.76 395.83 554.76 395.55 C 554.76 395.28 554.99 395.05 555.26 395.05 L 576.63 395.05 C 576.91 395.05 577.13 395.28 577.13 395.55 C 577.13 395.83 576.91 396.05 576.63 396.05 Z" fill="#232323" fill-rule="nonzero" node-id="574" stroke="none" target-height="1" target-width="22.369995" target-x="554.76" target-y="395.05"></path><path d="M 592.89 396.05 L 582.89 396.05 C 582.61 396.05 582.39 395.83 582.39 395.55 C 582.39 395.28 582.61 395.05 582.89 395.05 L 592.89 395.05 C 593.17 395.05 593.39 395.28 593.39 395.55 C 593.39 395.83 593.17 396.05 592.89 396.05 Z" fill="#232323" fill-rule="nonzero" node-id="576" stroke="none" target-height="1" target-width="11" target-x="582.39" target-y="395.05"></path><path d="M 564.91 401.88 L 555.26 401.88 C 554.99 401.88 554.76 401.66 554.76 401.38 C 554.76 401.11 554.99 400.88 555.26 400.88 L 564.91 400.88 C 565.19 400.88 565.41 401.11 565.41 401.38 C 565.41 401.66 565.19 401.88 564.91 401.88 Z" fill="#232323" fill-rule="nonzero" node-id="578" stroke="none" target-height="1" target-width="10.649963" target-x="554.76" target-y="400.88"></path><path d="M 587.66 401.88 L 570.77 401.88 C 570.50 401.88 570.27 401.66 570.27 401.38 C 570.27 401.11 570.50 400.88 570.77 400.88 L 587.66 400.88 C 587.94 400.88 588.16 401.11 588.16 401.38 C 588.16 401.66 587.94 401.88 587.66 401.88 Z" fill="#232323" fill-rule="nonzero" node-id="580" stroke="none" target-height="1" target-width="17.889954" target-x="570.27" target-y="400.88"></path><path d="M 610.59 401.88 L 591.97 401.88 C 591.70 401.88 591.47 401.66 591.47 401.38 C 591.47 401.11 591.70 400.88 591.97 400.88 L 610.59 400.88 C 610.87 400.88 611.09 401.11 611.09 401.38 C 611.09 401.66 610.87 401.88 610.59 401.88 Z" fill="#232323" fill-rule="nonzero" node-id="582" stroke="none" target-height="1" target-width="19.620056" target-x="591.47" target-y="400.88"></path><path d="M 595.59 407.71 L 555.26 407.71 C 554.99 407.71 554.76 407.49 554.76 407.21 C 554.76 406.93 554.99 406.71 555.26 406.71 L 595.59 406.71 C 595.87 406.71 596.09 406.93 596.09 407.21 C 596.09 407.49 595.87 407.71 595.59 407.71 Z" fill="#232323" fill-rule="nonzero" node-id="584" stroke="none" target-height="1" target-width="41.330017" target-x="554.76" target-y="406.71"></path><path d="M 606.80 407.71 L 600.07 407.71 C 599.80 407.71 599.57 407.49 599.57 407.21 C 599.57 406.93 599.80 406.71 600.07 406.71 L 606.80 406.71 C 607.07 406.71 607.30 406.93 607.30 407.21 C 607.30 407.49 607.07 407.71 606.80 407.71 Z" fill="#232323" fill-rule="nonzero" node-id="586" stroke="none" target-height="1" target-width="7.7299805" target-x="599.57" target-y="406.71"></path><path d="M 576.63 413.54 L 555.26 413.54 C 554.99 413.54 554.76 413.31 554.76 413.04 C 554.76 412.76 554.99 412.54 555.26 412.54 L 576.63 412.54 C 576.91 412.54 577.13 412.76 577.13 413.04 C 577.13 413.31 576.91 413.54 576.63 413.54 Z" fill="#232323" fill-rule="nonzero" node-id="588" stroke="none" target-height="1" target-width="22.369995" target-x="554.76" target-y="412.54"></path><path d="M 603.43 413.54 L 580.60 413.54 C 580.32 413.54 580.10 413.31 580.10 413.04 C 580.10 412.76 580.32 412.54 580.60 412.54 L 603.43 412.54 C 603.71 412.54 603.93 412.76 603.93 413.04 C 603.93 413.31 603.71 413.54 603.43 413.54 Z" fill="#232323" fill-rule="nonzero" node-id="590" stroke="none" target-height="1" target-width="23.830017" target-x="580.1" target-y="412.54"></path><path d="M 525.92 374.40 L 501.97 374.40 C 499.38 374.40 497.27 372.29 497.27 369.70 L 497.27 345.75 C 497.27 343.17 499.38 341.05 501.97 341.05 L 525.92 341.05 C 528.50 341.05 530.62 343.17 530.62 345.75 L 530.62 369.70 C 530.62 372.29 528.50 374.40 525.92 374.40 Z" fill="none" node-id="592" stroke="#232323" stroke-linecap="butt" stroke-width="1" target-height="33.350006" target-width="33.350006" target-x="497.27" target-y="341.05"></path><path d="M 543.96 416.90 L 494.47 416.90 C 492.52 416.90 490.92 415.30 490.92 413.35 L 490.92 413.35 C 490.92 411.39 492.52 409.80 494.47 409.80 L 543.96 409.80 C 545.91 409.80 547.51 411.39 547.51 413.35 L 547.51 413.35 C 547.51 415.30 545.91 416.90 543.96 416.90 Z" fill="none" node-id="594" stroke="#232323" stroke-linecap="butt" stroke-width="1" target-height="7.100006" target-width="56.589996" target-x="490.92" target-y="409.8"></path><path d="M 440.14 275.17 L 506.35 222.87 L 590.58 272.90 Z" fill="#aabb41" fill-rule="nonzero" node-id="596" stroke="none" target-height="52.30002" target-width="150.44" target-x="440.14" target-y="222.87"></path><path d="M 220.35 151.26 C 220.35 151.26 199.13 217.95 246.88 249.02 C 246.88 249.02 259.00 173.48 220.35 151.26 Z" fill="#aabb41" fill-rule="nonzero" node-id="598" stroke="none" target-height="97.76001" target-width="59.869995" target-x="199.13" target-y="151.26"></path><path d="M 279.76 140.47 C 279.76 140.47 315.85 100.10 352.60 130.79 C 352.60 130.79 335.39 160.75 279.76 140.47 Z" fill="#aabb41" fill-rule="nonzero" node-id="600" stroke="none" target-height="60.65" target-width="72.84" target-x="279.76" target-y="100.1"></path><path d="M 395.43 95.56 C 395.43 95.56 415.13 62.20 445.07 74.33 C 445.07 74.33 445.07 100.87 395.43 95.56 Z" fill="#aabb41" fill-rule="nonzero" node-id="602" stroke="none" target-height="38.670002" target-width="49.640015" target-x="395.43" target-y="62.2"></path><path d="M 447.45 116.40 C 447.45 116.40 426.88 146.33 462.88 180.06 C 462.88 180.06 482.43 146.72 447.45 116.40 Z" fill="#aabb41" fill-rule="nonzero" node-id="604" stroke="none" target-height="63.659996" target-width="55.549988" target-x="426.88" target-y="116.4"></path><path d="M 864.45 358.43 L 857.92 365.24 C 856.30 366.93 853.90 367.62 851.63 367.06 L 842.47 364.81 C 840.20 364.25 838.40 362.52 837.75 360.27 L 835.12 351.21 C 834.47 348.97 835.07 346.54 836.69 344.86 L 843.22 338.05 C 844.84 336.36 847.24 335.67 849.51 336.23 L 858.67 338.48 C 860.94 339.04 862.74 340.77 863.39 343.01 L 866.02 352.07 C 866.67 354.32 866.07 356.75 864.45 358.43 Z" fill="none" node-id="606" stroke="#5a78ec" stroke-linecap="butt" stroke-width="2" target-height="31.949982" target-width="32.200012" target-x="834.47" target-y="335.67"></path><path d="M 457.77 308.38 L 450.04 303.91 C 447.03 302.18 446.01 298.34 447.74 295.34 L 451.03 289.64 C 452.76 286.64 456.60 285.62 459.60 287.35 L 467.33 291.81 C 470.33 293.55 471.36 297.38 469.63 300.38 L 466.34 306.08 C 464.61 309.08 460.77 310.11 457.77 308.38 Z" fill="none" node-id="608" stroke="#5a78ec" stroke-linecap="butt" stroke-width="2" target-height="24.48999" target-width="25.349976" target-x="446.01" target-y="285.62"></path><path d="M 331.72 282.15 C 331.72 286.80 327.95 290.57 323.30 290.57 C 318.65 290.57 314.88 286.80 314.88 282.15 C 314.88 277.49 318.65 273.72 323.30 273.72 C 327.95 273.72 331.72 277.49 331.72 282.15 Z" fill="#5a78ec" fill-rule="nonzero" node-id="610" stroke="none" target-height="16.850006" target-width="16.839996" target-x="314.88" target-y="273.72"></path><path d="M 178.92 463.37 L 154.86 460.65 C 152.28 460.35 150.98 457.38 152.53 455.29 L 166.91 435.81 C 168.46 433.72 171.69 434.09 172.72 436.47 L 182.40 458.67 C 183.43 461.05 181.50 463.66 178.92 463.37 Z" fill="none" node-id="612" stroke="#5a78ec" stroke-linecap="butt" stroke-width="2" target-height="29.940002" target-width="32.449997" target-x="150.98" target-y="433.72"></path><path d="M 440.14 466.57 C 440.14 471.10 436.46 474.78 431.93 474.78 C 427.40 474.78 423.72 471.10 423.72 466.57 C 423.72 462.03 427.40 458.36 431.93 458.36 C 436.46 458.36 440.14 462.03 440.14 466.57 Z" fill="none" node-id="614" stroke="#5a78ec" stroke-linecap="butt" stroke-width="2" target-height="16.420013" target-width="16.420013" target-x="423.72" target-y="458.36"></path></svg>